<?xml version="1.0" standalone="no"?>
<!DOCTYPE svg PUBLIC "-//W3C//DTD SVG 20010904//EN"
 "http://www.w3.org/TR/2001/REC-SVG-20010904/DTD/svg10.dtd">
<svg version="1.0" xmlns="http://www.w3.org/2000/svg"
 width="1116.000000pt" height="837.000000pt" viewBox="0 0 1116.000000 837.000000"
 preserveAspectRatio="xMidYMid meet">

<g transform="translate(0.000000,837.000000) scale(0.100000,-0.100000)"
fill="#dde6b9" stroke="none">
<path d="M5421 8007 c-10 -13 -11 -24 -3 -46 11 -30 4 -81 -16 -116 -12 -21
-50 -183 -59 -250 -3 -22 -12 -49 -19 -60 -8 -12 -17 -43 -20 -70 l-7 -48 34
7 c37 8 77 14 96 15 6 1 24 42 39 92 32 100 41 109 114 109 46 0 76 -31 86
-89 4 -20 12 -42 18 -50 6 -8 10 -17 9 -20 -1 -3 10 -26 24 -51 16 -28 52 -65
96 -97 78 -58 128 -71 244 -60 61 6 143 40 143 59 0 13 -27 21 -41 13 -23 -15
-106 -14 -163 0 -69 18 -120 67 -131 125 -4 19 -14 43 -23 54 -10 10 -16 21
-14 25 5 12 -60 101 -74 101 -30 0 -11 19 49 50 73 38 94 55 113 92 27 52 16
115 -27 162 -11 11 -19 23 -19 27 0 18 -79 30 -249 36 -165 5 -188 4 -200 -10z
m338 -116 c30 -42 27 -75 -13 -116 -34 -35 -34 -35 -125 -35 -89 0 -91 1 -91
23 0 13 3 27 8 31 4 4 7 11 7 14 1 17 29 87 39 99 7 8 38 12 83 13 68 0 73 -2
92 -29z"/>
<path d="M4965 7979 c-4 -5 -17 -9 -28 -8 -12 2 -32 -3 -45 -9 -13 -8 -66 -13
-135 -14 -61 -1 -115 -3 -120 -5 -4 -2 4 -19 18 -37 26 -34 45 -107 37 -142
-12 -58 -13 -84 -3 -84 16 0 14 -47 -3 -73 -8 -12 -18 -53 -21 -92 -5 -44 -14
-80 -26 -97 -10 -15 -19 -31 -19 -36 0 -5 -11 -14 -25 -20 -28 -13 -25 -48 4
-36 9 4 39 10 66 14 28 5 63 13 79 19 16 7 77 16 135 22 173 17 303 83 333
169 15 44 -3 79 -63 118 l-51 34 51 34 c60 41 81 69 88 122 4 31 0 44 -22 70
-15 18 -33 32 -41 32 -8 0 -14 5 -14 11 0 5 -4 8 -9 4 -5 -3 -12 -1 -16 5 -8
13 -162 13 -170 -1z m90 -120 c15 -28 15 -33 -2 -67 -21 -44 -69 -70 -142 -79
l-51 -6 0 49 c0 58 15 114 32 126 7 4 43 8 80 8 65 0 68 -1 83 -31z m-43 -251
c2 -13 1 -39 -2 -58 -4 -30 -12 -38 -52 -57 -25 -12 -49 -27 -53 -32 -3 -6
-23 -11 -45 -11 -56 0 -65 34 -28 111 25 53 49 66 124 68 46 1 52 -1 56 -21z"/>
<path d="M6353 7942 c-12 -2 -33 -14 -47 -27 -13 -12 -26 -21 -29 -19 -2 2
-30 -26 -63 -62 -32 -36 -75 -82 -94 -101 -19 -20 -39 -45 -45 -57 -6 -11 -20
-25 -31 -31 -11 -5 -42 -35 -69 -65 -26 -30 -51 -57 -55 -60 -32 -24 10 -100
55 -100 25 0 81 49 128 112 35 48 57 53 159 38 114 -16 122 -23 126 -115 2
-41 8 -75 13 -75 5 0 12 -18 15 -40 8 -48 38 -79 61 -64 21 13 51 135 59 244
3 47 12 94 19 105 7 11 15 45 19 75 4 30 11 83 17 116 17 98 2 111 -138 119
-34 2 -66 5 -70 7 -4 2 -18 2 -30 0z m56 -113 c-8 -5 -10 -9 -4 -9 5 0 4 -5
-3 -12 -7 -7 -12 -40 -12 -78 0 -38 -5 -73 -12 -82 -13 -17 -81 -28 -94 -15
-4 4 -19 7 -33 7 -14 0 -32 4 -39 9 -20 12 21 74 63 94 19 9 35 21 35 26 0 15
57 71 64 64 3 -4 6 -1 6 5 0 13 34 21 39 9 2 -5 -3 -13 -10 -18z"/>
<path d="M4246 7841 c-4 -6 -12 -9 -17 -5 -10 6 -121 -57 -150 -86 -19 -19
-99 -175 -99 -194 0 -8 -6 -16 -12 -19 -9 -3 -13 -29 -12 -88 1 -68 5 -91 24
-121 34 -58 113 -116 168 -124 26 -3 52 -10 57 -13 41 -29 152 20 242 107 68
65 78 89 89 209 12 130 -45 257 -134 298 -20 10 -40 22 -43 28 -10 15 -105 22
-113 8z m8 -106 c15 -8 36 -15 45 -15 24 0 68 -78 80 -143 16 -86 -1 -198 -36
-243 -32 -43 -58 -54 -97 -43 -40 12 -116 87 -116 115 0 13 -4 26 -10 29 -14
9 -5 144 12 185 8 19 20 52 27 72 19 56 46 68 95 43z"/>
<path d="M6926 7771 c-4 -6 -11 -9 -16 -6 -5 3 -17 1 -27 -5 -10 -5 -31 -14
-46 -20 -19 -7 -34 -24 -47 -55 -18 -42 -19 -53 -8 -115 12 -70 12 -70 89
-140 78 -71 100 -109 77 -137 -9 -11 -24 -13 -67 -8 -50 6 -62 12 -107 57 -39
37 -53 60 -58 88 -10 66 -58 93 -76 44 -25 -64 -1 -129 80 -213 32 -33 57 -51
72 -51 13 0 29 -5 36 -12 7 -7 12 -8 12 -4 0 5 7 3 15 -4 21 -18 133 -16 175
3 38 17 55 34 83 84 19 35 23 83 6 83 -5 0 -8 4 -4 9 3 5 -3 12 -14 16 -11 3
-24 19 -30 36 -6 17 -35 53 -65 82 -46 43 -55 58 -58 91 -3 36 1 42 32 64 30
20 43 23 85 17 43 -5 56 -12 93 -51 23 -24 42 -47 42 -50 0 -3 -11 -17 -26
-32 l-25 -27 -20 24 c-10 13 -19 34 -19 47 0 40 -34 26 -45 -19 -9 -33 35
-104 74 -118 36 -14 86 6 121 49 48 58 36 128 -28 173 -20 15 -59 44 -86 65
-47 37 -53 39 -131 42 -54 3 -85 0 -89 -7z"/>
<path d="M3635 7562 c-32 -11 -275 -138 -321 -169 -35 -22 -35 -39 -4 -73 24
-25 32 -50 49 -137 12 -59 28 -120 36 -136 8 -17 15 -39 15 -49 0 -11 5 -28
11 -40 6 -11 15 -47 19 -81 9 -58 20 -77 48 -77 7 0 18 11 24 25 6 14 22 28
34 31 30 8 33 25 17 109 -7 39 -13 80 -13 92 0 25 73 83 105 83 11 0 50 -28
88 -64 47 -44 81 -68 112 -77 25 -7 45 -16 45 -20 0 -4 10 -7 23 -7 12 0 46
-3 74 -7 31 -5 58 -4 65 2 7 5 20 9 28 8 8 0 32 9 52 22 21 13 41 23 45 23 18
0 103 104 103 126 0 21 -3 23 -18 15 -10 -5 -29 -20 -42 -33 -79 -76 -230 -80
-302 -10 -72 71 -126 102 -174 102 -29 0 -30 7 -5 34 58 62 86 171 58 226 -26
51 -123 98 -172 82z m15 -137 c16 -8 31 -23 35 -34 7 -23 3 -91 -5 -91 -4 0
-12 -11 -20 -24 -7 -14 -24 -27 -39 -31 -14 -4 -33 -13 -41 -20 -8 -7 -27 -17
-42 -20 -24 -6 -29 -3 -38 20 -6 15 -11 55 -13 88 l-2 61 49 33 c54 37 74 40
116 18z"/>
<path d="M7443 7494 c-18 -9 -42 -32 -54 -51 -18 -29 -21 -46 -17 -114 3 -72
6 -81 30 -102 32 -26 96 -120 104 -152 6 -23 -17 -55 -39 -55 -34 1 -137 66
-137 88 0 5 -8 17 -19 26 -12 11 -20 35 -23 67 -3 33 -12 58 -26 71 l-20 20
-21 -21 c-59 -59 16 -249 120 -302 137 -70 269 -57 314 31 17 32 20 86 6 95
-5 3 -15 22 -21 43 -7 20 -30 58 -51 84 -72 87 -73 132 -5 172 40 23 86 26 86
6 0 -4 10 -10 23 -13 22 -6 87 -81 87 -102 0 -14 -37 -55 -50 -55 -14 0 -30
36 -30 68 0 26 -3 29 -21 25 -36 -10 -44 -45 -23 -98 34 -85 96 -97 169 -33
46 41 47 42 43 93 -4 49 -8 55 -83 129 -69 67 -86 79 -128 87 -76 14 -178 11
-214 -7z"/>
<path d="M3070 7244 c-25 -20 -47 -39 -50 -42 -3 -4 -11 -8 -19 -10 -29 -6
-118 -93 -141 -137 -13 -25 -27 -45 -32 -45 -4 0 -7 -3 -6 -7 1 -5 -6 -25 -15
-47 -24 -55 -23 -188 2 -241 11 -22 48 -70 84 -107 61 -63 67 -67 108 -66 24
0 50 5 56 10 7 6 19 8 27 5 8 -3 31 5 51 18 19 14 47 28 60 31 14 3 25 10 25
16 0 5 4 7 9 4 11 -7 35 21 64 75 13 25 30 55 38 67 11 18 12 26 1 43 -10 15
-10 24 -2 34 14 17 9 60 -7 60 -15 0 -53 -54 -93 -130 -26 -50 -39 -63 -73
-78 -49 -20 -87 -22 -87 -5 0 6 -3 8 -6 5 -23 -22 -91 84 -115 179 -23 90 29
212 107 254 65 35 87 67 79 113 -4 21 -10 37 -14 37 -3 0 -26 -16 -51 -36z"/>
<path d="M8064 7208 c3 -19 0 -42 -7 -54 -18 -31 -137 -139 -174 -158 -18 -9
-33 -21 -33 -26 0 -6 -5 -10 -12 -10 -7 0 -28 -15 -48 -34 -44 -43 -106 -76
-142 -76 -15 0 -30 -4 -33 -10 -6 -9 65 -60 85 -60 5 0 10 -3 10 -7 0 -5 17
-19 38 -32 20 -14 46 -32 57 -41 11 -9 45 -27 75 -39 82 -34 225 -105 228
-113 6 -14 40 -9 45 6 7 18 -56 77 -114 106 -23 12 -51 30 -62 41 -12 10 -24
19 -28 19 -15 0 -59 47 -59 63 0 20 66 77 89 77 10 0 36 -12 57 -26 21 -15 61
-33 88 -41 27 -8 66 -26 88 -40 97 -64 43 49 -56 118 -27 19 -54 34 -60 34
-11 0 -41 34 -35 39 48 38 89 56 130 56 39 0 59 -8 125 -52 125 -83 173 -103
188 -79 8 13 -13 34 -94 95 -41 30 -94 73 -117 93 -68 61 -83 73 -91 73 -4 0
-32 25 -62 55 -63 64 -85 71 -76 23z"/>
<path d="M5408 7193 c-1 -5 -24 -16 -50 -25 -38 -13 -54 -15 -78 -6 -48 16
-140 5 -198 -23 -31 -16 -56 -22 -64 -17 -17 10 -111 10 -124 0 -5 -5 -25 -15
-44 -22 -19 -7 -47 -22 -62 -32 -18 -13 -35 -17 -53 -12 -24 6 -72 -4 -130
-26 -11 -4 -41 -24 -68 -44 -35 -26 -57 -36 -85 -36 -62 0 -105 -17 -159 -65
-30 -27 -61 -45 -75 -45 -13 0 -43 -9 -66 -20 -22 -11 -45 -20 -49 -20 -5 0
-31 -22 -58 -50 -27 -27 -54 -50 -60 -50 -6 0 -30 -9 -53 -20 -22 -11 -45 -20
-51 -20 -5 0 -36 -29 -68 -63 -41 -46 -72 -69 -106 -81 -56 -21 -106 -67 -133
-122 -14 -28 -28 -41 -51 -48 -18 -5 -33 -13 -33 -17 0 -5 -6 -9 -13 -9 -16 0
-77 -62 -77 -78 0 -7 -4 -12 -8 -12 -5 0 -16 -17 -24 -37 -11 -29 -26 -44 -61
-61 -52 -26 -81 -61 -117 -140 -16 -35 -35 -60 -58 -74 -44 -27 -87 -87 -108
-151 -12 -37 -30 -63 -61 -90 -23 -21 -43 -45 -43 -52 0 -8 -7 -21 -16 -29 -8
-9 -12 -16 -8 -16 3 0 2 -6 -4 -12 -5 -7 -13 -33 -17 -58 -6 -33 -17 -54 -45
-81 -39 -38 -68 -107 -72 -169 -1 -23 -14 -52 -39 -85 -49 -65 -59 -94 -59
-164 0 -48 -5 -64 -31 -99 -17 -23 -28 -42 -24 -42 4 0 1 -7 -6 -17 -9 -11
-14 -45 -15 -103 0 -72 -4 -93 -23 -123 -12 -20 -19 -37 -15 -37 4 0 3 -5 -4
-12 -14 -14 -16 -138 -2 -138 13 0 6 -47 -15 -95 -14 -31 -16 -57 -12 -119 3
-43 9 -82 14 -85 10 -7 12 -61 2 -61 -4 0 -11 -21 -15 -46 -8 -53 11 -150 32
-172 11 -11 13 -31 8 -86 -7 -83 11 -164 48 -211 15 -19 18 -30 10 -33 -14 -4
-16 -84 -3 -110 6 -9 21 -43 36 -74 14 -32 30 -58 35 -58 6 0 10 -19 10 -43 0
-64 25 -138 64 -189 23 -30 38 -63 45 -100 11 -62 72 -168 101 -175 12 -3 20
-18 24 -44 11 -71 37 -118 92 -168 41 -38 56 -59 65 -95 11 -45 88 -146 111
-146 16 0 41 -31 59 -70 22 -50 82 -115 130 -142 26 -14 50 -40 69 -75 32 -55
78 -96 148 -127 23 -11 42 -24 42 -31 0 -30 110 -131 153 -139 33 -7 65 -27
80 -49 28 -44 101 -96 152 -109 36 -9 66 -27 108 -65 32 -29 63 -51 68 -48 5
4 9 1 9 -6 0 -7 3 -9 7 -6 3 4 11 3 17 -2 6 -4 31 -11 55 -15 29 -4 57 -18 83
-41 47 -40 114 -65 174 -65 33 0 50 -7 74 -29 17 -15 50 -34 73 -41 23 -7 52
-17 64 -22 11 -6 38 -8 60 -6 28 4 51 -2 88 -21 43 -22 64 -26 149 -28 54 0
101 -6 105 -11 3 -5 30 -18 60 -28 47 -15 63 -16 130 -5 65 10 82 10 120 -3
55 -20 98 -20 177 0 49 12 74 13 117 5 61 -11 147 4 193 34 21 13 38 16 80 10
62 -7 150 14 197 47 21 15 47 21 91 22 64 2 139 29 176 64 14 13 43 22 83 26
67 8 125 36 170 84 19 20 35 28 48 25 11 -3 30 -1 42 5 12 6 35 13 50 17 16 3
55 32 88 64 33 31 61 55 63 53 7 -7 79 21 119 47 20 13 53 45 71 70 27 37 44
49 80 59 53 14 122 72 151 126 13 23 29 37 47 41 37 8 119 84 143 131 25 48
35 60 63 68 40 13 120 104 137 157 12 35 25 54 45 64 57 29 110 103 125 173 4
20 17 39 33 49 55 34 97 101 108 172 5 33 18 54 51 88 51 51 69 88 79 164 5
41 15 63 40 91 35 40 53 91 59 168 2 30 12 61 24 79 38 53 51 98 51 176 0 65
4 83 26 121 30 51 43 154 27 214 -8 28 -6 43 10 75 11 22 22 51 25 65 8 43 1
134 -10 141 -6 4 -8 11 -4 17 3 6 1 14 -5 17 -12 8 -3 76 12 86 5 3 9 27 10
55 1 83 0 91 -37 169 -12 25 -13 40 -3 85 15 68 0 138 -41 200 -26 39 -30 55
-30 111 0 76 -20 142 -54 179 -18 19 -25 41 -29 92 -4 38 -12 78 -18 90 -14
27 -81 112 -91 116 -5 2 -8 18 -8 36 0 57 -29 120 -75 166 -25 25 -45 53 -45
65 0 12 -3 25 -7 29 -5 4 -8 11 -9 14 -2 30 -40 86 -87 128 -39 36 -59 63 -66
91 -15 54 -59 112 -114 148 -32 21 -48 41 -56 65 -10 33 -87 130 -104 130 -21
0 -87 55 -98 83 -19 46 -84 103 -146 129 -29 12 -53 28 -53 35 0 32 -103 121
-149 129 -7 2 -18 7 -24 13 -6 6 -18 11 -26 11 -9 0 -26 16 -39 36 -24 36
-109 97 -123 88 -5 -3 -9 0 -9 6 0 7 -7 10 -15 7 -8 -4 -17 -2 -20 3 -4 6 -13
10 -22 10 -9 0 -37 20 -63 44 -30 28 -64 49 -91 56 -24 7 -52 16 -62 21 -10 6
-26 7 -36 4 -11 -3 -29 7 -51 30 -19 19 -40 35 -47 35 -7 0 -13 4 -13 9 0 12
-80 31 -132 31 -32 0 -50 6 -71 25 -38 36 -98 55 -173 55 -53 0 -72 5 -106 28
-38 25 -50 27 -142 28 -79 0 -114 5 -160 22 -61 24 -115 24 -183 1 -25 -8 -38
-7 -61 5 -16 8 -32 12 -36 9 -3 -4 -6 -1 -6 5 0 13 -116 17 -122 5z m125 -54
c20 -5 37 -15 37 -21 0 -6 3 -9 6 -5 11 11 113 -89 176 -175 10 -13 35 -46 57
-75 44 -57 45 -55 -31 -68 -81 -13 -119 11 -275 176 -34 36 -82 81 -107 100
-25 19 -44 39 -42 44 3 11 77 33 116 34 14 1 42 -4 63 -10z m285 -17 c2 -7 9
-12 16 -12 26 0 135 -132 175 -212 8 -16 18 -28 23 -28 4 0 8 -5 8 -11 0 -5
11 -27 25 -47 25 -37 31 -53 18 -50 -5 0 -16 -2 -26 -7 -9 -4 -30 -5 -45 -2
-15 3 -36 7 -47 9 -31 5 -87 53 -132 114 -55 74 -143 181 -167 203 -50 47 -31
61 78 57 44 -1 71 -6 74 -14z m-563 -3 c4 -6 13 -8 21 -5 8 3 14 1 14 -3 0 -5
14 -14 31 -20 33 -12 269 -237 269 -257 0 -18 -76 -37 -126 -31 -31 3 -58 17
-101 51 -70 55 -119 96 -142 116 -9 9 -45 35 -79 59 -34 24 -62 47 -62 51 0
10 60 34 77 31 6 -1 14 3 18 9 8 13 72 13 80 -1z m815 -35 c59 -22 112 -87
183 -229 80 -160 79 -155 15 -155 -84 0 -130 35 -192 144 -15 28 -31 53 -35
56 -6 5 -23 34 -45 75 -6 11 -17 27 -24 35 -45 53 -60 75 -56 82 9 14 107 9
154 -8z m-1061 -16 c28 -6 51 -15 51 -20 0 -5 5 -6 10 -3 6 3 10 2 10 -3 0 -5
12 -14 27 -21 24 -11 243 -189 243 -197 0 -2 -17 -11 -37 -20 -74 -31 -162
-17 -238 38 -5 4 -30 23 -55 41 -25 18 -61 42 -80 52 -19 11 -40 25 -46 30 -6
6 -30 19 -53 29 l-41 19 22 16 c13 9 25 14 27 12 2 -1 7 2 10 7 6 9 61 29 88
31 6 1 34 -4 62 -11z m1287 -35 c38 -12 70 -30 92 -53 35 -36 96 -156 127
-251 10 -30 20 -58 24 -64 3 -5 6 -14 7 -20 1 -5 3 -17 5 -25 6 -24 -50 -24
-103 0 -55 24 -70 43 -129 165 -24 50 -48 93 -54 97 -7 5 -7 8 0 8 7 0 7 3 0
8 -6 4 -19 25 -30 47 -11 22 -28 52 -37 66 -29 44 2 51 98 22z m-1475 -61
c114 -60 279 -167 279 -182 0 -4 -27 -19 -60 -34 -76 -35 -101 -30 -233 42
-84 45 -194 100 -217 107 -3 1 -16 6 -29 12 -24 10 -24 10 20 40 57 39 64 41
130 42 42 1 68 -6 110 -27z m1710 -23 c91 -20 159 -106 194 -249 9 -36 19 -72
22 -80 3 -8 7 -19 8 -25 1 -5 3 -12 4 -15 3 -7 9 -29 17 -62 8 -34 -8 -36 -79
-12 -59 20 -98 65 -121 142 -10 31 -24 66 -30 77 -7 11 -21 45 -31 75 -9 30
-28 74 -41 97 -39 68 -35 72 57 52z m-2011 -51 c8 -4 33 -12 55 -19 22 -6 58
-21 80 -32 22 -11 42 -20 45 -20 3 0 11 -7 18 -14 7 -7 19 -13 25 -13 7 0 36
-15 65 -33 l52 -33 -23 -22 c-13 -12 -27 -19 -30 -15 -4 3 -7 1 -7 -5 0 -17
-69 -35 -110 -28 -21 3 -61 17 -88 31 -27 14 -55 25 -62 25 -7 0 -35 12 -64
26 -28 14 -53 26 -56 26 -3 0 -15 4 -26 9 -12 4 -38 11 -58 14 -45 9 -50 17
-28 41 16 16 37 28 112 64 17 8 78 7 100 -2z m2293 -71 c45 -23 98 -87 116
-140 13 -40 41 -171 46 -219 1 -16 3 -29 5 -30 1 -2 3 -10 5 -18 1 -8 6 -28
10 -44 7 -26 6 -28 -16 -22 -52 15 -109 38 -109 44 0 4 -12 21 -27 37 -16 16
-27 32 -27 35 1 3 -2 14 -6 25 -4 11 -15 56 -25 100 -10 44 -21 85 -25 90 -4
6 -18 42 -30 80 -12 39 -24 75 -26 82 -8 17 61 5 109 -20z m-2468 -57 c17 -6
30 -10 31 -8 0 2 7 -2 15 -8 8 -6 32 -17 54 -24 22 -7 54 -20 71 -30 17 -9 47
-23 68 -30 43 -14 42 -24 -7 -63 -26 -21 -51 -31 -86 -35 -50 -4 -146 13 -168
31 -7 5 -13 7 -13 4 0 -3 -19 2 -42 13 -24 10 -82 26 -130 36 -49 9 -88 20
-88 23 0 14 77 81 110 96 39 17 133 15 185 -5z m1065 -5 c35 -18 123 -17 160
2 34 18 65 16 86 -4 21 -21 129 -30 174 -15 26 9 36 8 68 -11 29 -17 55 -22
120 -24 71 -2 89 -6 115 -26 37 -28 107 -47 171 -47 37 0 48 -4 62 -24 14 -23
89 -56 139 -62 43 -5 56 -11 95 -47 22 -21 40 -34 40 -30 0 4 4 3 8 -3 9 -14
68 -34 98 -34 16 0 44 -20 83 -59 47 -47 68 -61 110 -71 45 -11 54 -17 71 -51
11 -21 30 -44 42 -50 13 -7 28 -18 35 -24 6 -7 32 -18 56 -25 33 -10 47 -21
57 -44 7 -17 22 -42 34 -55 24 -27 92 -72 114 -75 9 -2 22 -20 29 -42 15 -44
61 -95 113 -127 41 -24 50 -35 50 -60 0 -10 5 -23 10 -30 6 -7 20 -27 33 -46
12 -19 31 -39 41 -45 36 -21 55 -45 71 -92 16 -48 52 -106 69 -113 29 -12 56
-56 56 -92 0 -22 5 -39 11 -39 5 0 7 -4 4 -10 -3 -5 -2 -10 3 -10 5 0 15 -13
22 -29 6 -16 25 -41 41 -57 23 -22 29 -37 29 -68 0 -44 32 -118 66 -155 17
-18 23 -38 26 -96 3 -64 8 -80 35 -119 29 -41 32 -51 26 -95 -6 -54 13 -151
30 -151 6 0 7 -3 4 -7 -4 -3 2 -17 14 -29 18 -19 19 -25 8 -45 -17 -32 -12
-131 10 -188 17 -46 17 -49 0 -82 -21 -40 -25 -132 -7 -190 9 -33 9 -42 -5
-57 -10 -10 -17 -23 -17 -29 0 -6 -6 -13 -12 -16 -9 -2 -13 -35 -14 -110 -1
-85 -4 -111 -17 -125 -10 -10 -17 -24 -17 -30 0 -7 -5 -12 -11 -12 -5 0 -8 -4
-4 -9 3 -5 1 -12 -5 -16 -5 -3 -10 -40 -10 -82 0 -71 -2 -77 -34 -115 -34 -40
-56 -105 -56 -167 0 -20 -7 -31 -26 -39 -29 -14 -60 -76 -70 -142 -6 -35 -18
-54 -58 -94 -48 -48 -76 -102 -76 -150 0 -8 -17 -26 -37 -40 -53 -33 -71 -56
-98 -121 -21 -54 -36 -69 -91 -94 -19 -8 -76 -93 -96 -142 -3 -9 -19 -19 -35
-22 -35 -7 -97 -65 -123 -117 -16 -32 -27 -40 -57 -46 -28 -5 -53 -23 -95 -66
-32 -32 -58 -62 -58 -66 0 -7 -21 -17 -90 -42 -19 -7 -56 -35 -81 -62 -32 -33
-54 -48 -72 -48 -14 0 -29 -5 -32 -11 -4 -6 -13 -8 -21 -5 -8 3 -14 1 -14 -4
0 -6 -6 -10 -14 -10 -8 0 -36 -20 -64 -45 -38 -34 -58 -45 -83 -45 -36 0 -119
-28 -119 -40 0 -19 -74 -50 -119 -50 -26 0 -51 -3 -55 -7 -4 -5 -11 -8 -14 -9
-15 -2 -49 -18 -76 -38 -23 -15 -46 -20 -105 -20 -66 -1 -82 -5 -120 -29 -41
-27 -46 -28 -89 -17 -49 12 -105 6 -163 -17 -33 -13 -43 -13 -88 1 -54 16
-149 8 -176 -14 -9 -8 -22 -5 -46 9 -46 26 -104 34 -164 22 -46 -9 -53 -8 -89
17 -32 22 -53 27 -125 32 -81 5 -130 22 -152 53 -4 5 -42 12 -85 16 -70 6 -83
11 -112 39 -35 33 -85 52 -137 52 -21 0 -44 13 -78 44 -26 25 -61 48 -77 51
-17 4 -30 10 -30 15 0 4 -20 11 -44 14 -36 6 -46 12 -56 37 -13 30 -119 99
-154 99 -22 0 -38 16 -60 58 -9 18 -32 40 -51 49 -19 9 -35 20 -35 24 0 5 -18
13 -39 20 -26 8 -41 19 -45 33 -7 30 -75 101 -116 121 -48 24 -70 45 -70 67 0
22 -70 100 -116 129 -24 15 -37 32 -45 62 -11 42 -100 147 -125 147 -6 0 -14
22 -18 49 -7 52 -53 124 -100 155 -20 12 -26 25 -26 51 0 19 -6 47 -12 62 -11
25 -64 101 -79 113 -4 3 -8 31 -11 63 -3 33 -9 62 -14 65 -5 4 -18 25 -29 47
-11 22 -28 48 -38 58 -14 14 -16 22 -8 30 19 19 12 62 -21 133 -28 59 -33 80
-34 149 0 69 -4 87 -28 127 -23 40 -25 50 -15 69 16 31 13 125 -6 178 -11 33
-12 47 -4 57 17 21 23 138 9 188 -11 40 -10 46 13 83 20 31 25 52 24 103 0 36
-4 70 -9 77 -7 8 -5 18 6 29 32 32 49 80 54 154 4 64 9 80 34 111 16 20 31 52
35 73 3 20 10 39 14 42 5 3 9 22 9 42 0 28 8 44 35 72 26 27 39 52 51 105 14
56 24 77 54 105 37 35 72 101 85 160 4 17 14 34 23 38 43 16 122 129 122 174
0 10 7 18 15 18 30 0 114 90 132 141 14 39 23 50 46 55 41 9 94 59 123 116 16
32 31 48 44 48 10 0 22 5 25 10 4 6 11 8 16 5 5 -4 9 -3 9 2 0 4 13 15 29 25
16 9 43 35 60 59 32 44 70 69 103 69 10 0 46 27 80 60 37 35 71 60 83 60 12 0
25 3 29 7 3 4 13 8 21 9 23 3 104 63 121 90 13 20 25 24 63 24 26 0 56 7 69
16 12 8 22 12 22 7 0 -4 4 -3 8 4 21 32 86 64 133 65 27 0 49 3 49 7 0 4 15
13 34 19 19 7 51 24 71 38 27 18 41 22 48 15 14 -14 87 -14 87 0 0 5 4 8 8 5
5 -3 33 8 64 23 51 26 60 28 97 18 48 -13 145 3 170 28 19 19 25 19 61 0z
m1654 -83 c73 -52 109 -156 120 -347 2 -27 7 -69 11 -93 l8 -43 -29 7 c-45 10
-103 46 -110 66 -3 10 -10 18 -16 18 -6 0 -8 3 -5 6 3 4 1 16 -5 28 -10 18
-54 227 -61 291 -1 11 -4 22 -7 25 -3 3 -11 22 -17 44 l-12 38 41 -5 c22 -3
59 -19 82 -35z m-2958 -43 c32 -6 64 -15 71 -21 7 -5 17 -7 23 -3 5 3 10 2 10
-2 0 -5 41 -20 90 -33 50 -13 90 -29 90 -36 0 -16 -49 -63 -84 -81 -34 -17
-177 -13 -199 6 -7 5 -22 10 -32 10 -11 0 -51 7 -90 15 -38 8 -89 15 -112 16
-56 0 -57 22 -5 72 66 66 121 79 238 57z m3142 -89 c2 -6 9 -10 15 -10 21 -1
72 -54 92 -95 16 -34 20 -70 23 -227 4 -155 2 -188 -9 -188 -23 0 -113 74
-127 103 -12 24 -42 277 -42 346 0 12 -3 28 -7 35 -4 6 -9 22 -11 35 -3 22 -1
23 30 17 18 -3 35 -11 36 -16z m-3298 -71 c8 -1 20 -5 25 -9 6 -4 53 -15 106
-25 112 -21 116 -30 42 -95 -36 -31 -54 -40 -91 -42 -63 -4 -203 10 -224 22
-9 5 -39 10 -65 11 -96 2 -133 4 -133 7 0 11 32 60 50 77 61 55 90 65 185 60
50 -3 97 -6 105 -6z m3566 -140 c41 -48 59 -107 59 -203 0 -142 -15 -286 -29
-286 -19 0 -93 56 -106 81 -19 34 -29 134 -31 289 0 80 -5 150 -11 157 -38 47
76 9 118 -38z m-3664 -43 c59 -6 110 -15 114 -19 9 -8 -29 -67 -63 -97 -28
-25 -29 -25 -260 -28 -128 -2 -233 0 -233 3 0 15 41 82 62 102 58 55 160 65
380 39z m3825 -124 c23 -20 48 -51 57 -69 22 -43 21 -163 -1 -325 -21 -149
-26 -154 -95 -80 -55 58 -62 98 -48 252 5 58 9 142 10 187 0 95 7 98 77 35z
m-3923 -55 c31 -6 29 -20 -10 -71 -34 -45 -74 -72 -102 -67 -8 1 -19 -2 -25
-7 -7 -5 -79 -12 -162 -15 -82 -4 -167 -9 -187 -13 -34 -6 -38 -4 -38 14 0 11
7 27 15 35 8 8 11 17 8 21 -4 3 -2 6 4 6 5 0 15 11 21 25 11 25 83 69 114 70
9 0 20 4 25 9 8 8 296 2 337 -7z m4105 -159 c55 -54 75 -109 67 -191 -3 -38
-10 -75 -14 -81 -3 -6 -7 -18 -7 -26 0 -8 -3 -19 -7 -25 -3 -5 -14 -50 -24
-99 -11 -50 -24 -91 -32 -93 -13 -5 -82 61 -82 78 0 5 -4 9 -9 9 -23 0 -13
218 11 247 6 7 8 20 4 28 -3 9 -1 23 4 33 5 9 12 52 15 94 7 88 10 89 74 26z
m-4265 -40 c-22 -74 -57 -112 -119 -129 -22 -6 -47 -14 -55 -17 -8 -2 -28 -4
-43 -3 -15 2 -33 -1 -40 -6 -7 -5 -22 -10 -35 -11 -39 -2 -170 -23 -203 -32
l-32 -9 6 36 c10 58 57 114 123 147 50 25 73 29 188 36 230 13 218 13 210 -12z
m4410 -165 c46 -48 76 -110 76 -154 0 -34 -15 -112 -27 -139 -3 -8 -7 -17 -8
-20 -1 -3 -4 -12 -8 -20 -3 -8 -13 -40 -23 -70 -9 -30 -26 -74 -36 -98 -22
-50 -29 -48 -78 26 -23 34 -30 57 -30 91 0 44 14 120 27 151 10 25 12 31 33
125 11 50 20 102 20 118 0 36 12 34 54 -10z m-4570 -40 c-10 -39 -50 -100 -77
-117 -20 -14 -122 -43 -172 -50 -11 -2 -27 -6 -35 -9 -8 -3 -55 -15 -105 -27
-49 -12 -95 -26 -101 -31 -21 -17 -24 6 -8 60 16 55 79 131 107 131 10 0 17 4
17 10 0 5 7 7 15 4 8 -4 15 -2 15 4 0 13 209 46 318 51 31 1 32 -1 26 -26z
m4756 -260 c19 -37 22 -56 17 -105 -3 -32 -10 -64 -15 -71 -5 -7 -13 -23 -17
-37 -4 -14 -30 -76 -58 -138 -36 -78 -57 -112 -67 -110 -8 2 -30 32 -48 67
-28 54 -31 68 -22 95 5 17 19 63 30 101 12 39 24 77 27 85 3 8 5 18 5 23 -1 4
2 7 7 7 4 0 18 43 31 95 l23 96 32 -31 c18 -17 42 -52 55 -77z m-4909 24 c-6
-6 -11 -18 -11 -26 -1 -34 -82 -101 -122 -101 -7 0 -25 -7 -40 -14 -16 -8 -62
-24 -104 -36 -42 -11 -100 -32 -129 -45 -80 -38 -83 -36 -65 42 14 59 76 132
129 152 14 5 35 13 46 17 11 4 23 8 28 9 4 2 8 4 10 5 1 1 61 14 132 29 l130
27 3 -24 c2 -14 -1 -29 -7 -35z m-123 -209 c-5 -29 -16 -64 -23 -78 -15 -28
-139 -98 -225 -125 -30 -10 -57 -21 -60 -25 -3 -4 -32 -19 -65 -34 -33 -15
-63 -32 -67 -39 -11 -18 -9 72 2 115 10 34 36 67 88 110 11 9 49 27 84 39 34
13 65 26 68 29 3 4 47 17 98 31 50 13 92 27 92 32 0 4 4 6 9 3 5 -3 4 -29 -1
-58z m5136 -36 c41 -83 25 -170 -62 -322 -87 -153 -97 -170 -103 -170 -3 0
-18 23 -34 51 -24 44 -27 59 -22 109 3 31 14 78 25 104 12 25 21 49 21 53 -1
3 3 9 8 12 5 3 20 33 34 66 13 33 27 62 30 65 3 3 12 23 18 45 7 22 15 46 17
54 5 16 46 -24 68 -67z m-5237 -203 c-5 -57 -9 -65 -49 -103 -24 -23 -68 -53
-96 -66 -29 -14 -52 -28 -52 -33 0 -4 -4 -5 -10 -2 -5 3 -10 2 -10 -3 0 -5
-17 -16 -37 -25 -21 -8 -66 -34 -100 -56 l-63 -41 -2 27 c-8 156 43 209 307
323 22 9 51 22 65 28 49 21 53 17 47 -49z m5321 -37 c6 -15 13 -36 18 -47 13
-35 10 -88 -8 -142 -21 -65 -48 -124 -65 -141 -7 -8 -18 -23 -25 -35 -6 -12
-19 -31 -29 -42 -9 -11 -31 -35 -47 -54 -18 -21 -35 -32 -44 -29 -8 4 -24 33
-36 66 l-22 60 24 68 c14 37 29 70 34 73 13 8 74 117 118 210 33 71 35 73 53
57 11 -10 24 -29 29 -44z m-5398 -196 c0 -35 -3 -66 -7 -68 -5 -1 -16 -16 -25
-33 -9 -16 -25 -34 -35 -40 -10 -5 -22 -16 -26 -22 -4 -7 -14 -13 -22 -13 -7
0 -15 -3 -17 -7 -1 -5 -35 -30 -75 -56 -39 -26 -91 -66 -116 -87 -52 -46 -62
-49 -71 -17 -27 101 16 186 133 265 57 38 240 140 254 141 4 1 7 -28 7 -63z
m5460 -45 c0 -5 7 -26 16 -47 17 -40 21 -123 9 -159 -27 -76 -66 -134 -146
-219 -50 -53 -95 -96 -99 -96 -27 0 -62 138 -41 163 6 8 8 17 4 20 -3 4 -1 7
5 7 6 0 14 9 17 20 4 12 41 67 83 124 42 57 89 127 105 155 15 29 32 49 37 46
6 -3 10 -10 10 -14z m-5513 -195 c3 -27 0 -59 -8 -78 -13 -33 -88 -111 -171
-178 -23 -19 -70 -61 -102 -93 -33 -31 -63 -54 -67 -50 -16 16 -21 118 -9 162
14 52 87 130 176 187 32 21 63 41 69 46 45 37 91 64 99 58 4 -5 11 -29 13 -54z
m5573 -134 c29 -107 -3 -202 -110 -315 -62 -67 -147 -134 -162 -129 -5 1 -8
-2 -8 -8 0 -23 -22 -8 -36 25 -17 42 -18 107 -2 123 7 7 9 12 5 12 -10 0 -4 8
105 128 51 56 113 127 137 157 24 30 47 52 52 49 5 -2 13 -21 19 -42z m-5609
-64 c1 -7 0 -17 -1 -23 -1 -5 4 -26 10 -45 18 -56 -12 -107 -150 -254 -67 -72
-126 -138 -131 -148 -5 -10 -14 -18 -18 -18 -16 0 -31 61 -31 122 0 65 17 111
59 160 33 38 241 218 252 218 5 0 10 -6 10 -12z m5613 -230 c16 -62 -1 -188
-27 -188 -6 0 -8 -3 -4 -6 3 -3 -2 -15 -11 -27 -25 -31 -106 -107 -115 -107
-4 0 -15 -6 -23 -12 -40 -34 -53 -42 -131 -84 l-42 -23 -7 35 c-10 52 1 123
23 153 11 14 57 56 104 93 46 37 111 95 143 128 33 33 65 60 72 60 6 0 14 -10
18 -22z m-5618 -43 c3 -19 10 -38 15 -41 17 -10 9 -63 -19 -116 -15 -29 -59
-93 -98 -143 -39 -49 -73 -98 -77 -107 -4 -10 -11 -18 -17 -18 -6 0 -8 -4 -5
-10 3 -5 2 -10 -4 -10 -6 0 -13 -11 -17 -25 -9 -35 -20 -31 -35 10 -7 19 -16
35 -19 35 -15 0 -18 138 -4 148 5 4 18 24 28 45 11 21 30 50 43 65 44 52 188
200 195 201 4 1 10 -15 14 -34z m17 -234 c-2 -6 1 -11 6 -11 5 0 14 -23 20
-51 14 -65 3 -107 -49 -188 -22 -34 -40 -66 -40 -71 0 -6 -4 -10 -9 -10 -5 0
-19 -21 -31 -47 -12 -27 -31 -60 -41 -74 -9 -14 -21 -37 -24 -52 -7 -28 -25
-38 -25 -14 0 7 -9 23 -19 34 -42 45 -51 172 -15 208 9 8 13 15 9 15 -3 0 8
20 25 44 16 25 30 47 30 50 0 3 8 14 18 24 9 10 24 29 32 42 8 13 25 34 38 46
12 11 22 25 22 29 0 5 8 17 17 27 17 19 40 19 36 -1z m5567 -9 c0 -10 3 -22 7
-26 10 -9 12 -49 3 -61 -4 -5 -10 -27 -14 -47 -7 -41 -76 -124 -122 -148 -16
-8 -31 -18 -34 -21 -10 -12 -203 -109 -216 -109 -10 0 -14 14 -14 49 0 92 28
132 145 209 39 25 87 57 109 71 21 14 57 42 80 63 47 42 56 46 56 20z m-5523
-229 c4 -10 16 -30 27 -46 33 -46 25 -106 -30 -222 -26 -55 -46 -103 -46 -107
1 -5 -2 -8 -6 -8 -5 0 -20 -31 -33 -70 -13 -38 -27 -70 -32 -70 -4 0 -5 -4 -2
-10 14 -23 -15 -8 -34 18 -12 15 -26 33 -31 40 -6 6 -8 12 -4 12 3 0 1 7 -6
15 -7 9 -13 39 -13 68 -1 56 43 162 104 252 16 23 29 48 29 54 0 6 5 11 10 11
6 0 10 7 10 15 0 8 4 15 10 15 5 0 12 11 16 25 7 29 22 33 31 8z m5481 -101
c-8 -107 -61 -171 -183 -221 -27 -12 -59 -26 -69 -32 -11 -6 -55 -24 -98 -40
l-78 -28 0 37 c0 82 15 107 96 162 42 27 87 53 100 56 13 3 24 10 24 16 0 5 5
6 10 3 6 -3 10 -2 10 2 0 5 17 17 38 26 20 9 60 32 87 51 28 19 54 35 59 35 5
1 6 -30 4 -67z m-5357 -229 c8 -27 7 -49 -6 -108 -9 -40 -20 -75 -24 -77 -4
-2 -21 -41 -36 -88 -15 -47 -32 -90 -37 -97 -5 -7 -7 -17 -4 -22 4 -5 2 -12
-4 -16 -5 -3 -10 -17 -10 -31 0 -34 -12 -30 -53 15 -43 48 -60 114 -46 186 12
63 40 145 51 145 4 0 8 5 8 12 0 6 19 51 43 100 l42 88 32 -36 c18 -20 37 -52
44 -71z m5279 -13 c0 -87 -78 -185 -166 -212 -24 -7 -44 -16 -44 -20 0 -4 -3
-7 -7 -6 -5 0 -15 -2 -23 -5 -14 -5 -150 -44 -177 -50 -7 -2 -16 -6 -19 -10
-4 -4 -14 -7 -22 -7 -11 0 -12 9 -7 40 11 64 50 126 93 145 20 9 51 24 67 32
17 8 64 27 105 42 41 15 100 42 130 59 30 18 58 32 63 32 4 0 7 -18 7 -40z
m-5230 -143 c14 -12 36 -44 49 -70 21 -41 23 -53 14 -80 -6 -18 -24 -86 -38
-152 -15 -66 -31 -124 -35 -130 -4 -5 -11 -34 -15 -62 -4 -29 -10 -53 -14 -53
-14 0 -80 76 -92 105 -25 60 4 264 46 330 7 11 21 46 31 78 10 31 20 57 23 57
3 0 17 -11 31 -23z m5127 -94 c-3 -10 -8 -34 -11 -54 -17 -98 -119 -163 -301
-194 -55 -9 -107 -19 -115 -22 -8 -3 -23 -5 -32 -4 -10 1 -18 -3 -18 -9 0 -6
-4 -9 -9 -6 -10 7 -9 19 7 59 7 16 12 32 12 36 0 18 44 63 78 80 21 10 62 24
92 32 30 7 57 16 60 19 3 3 41 16 85 28 44 13 91 29 105 37 36 19 52 18 47 -2z
m-4989 -147 c25 -27 43 -58 48 -81 7 -41 -30 -315 -48 -352 -6 -12 -8 -38 -5
-57 8 -49 -11 -47 -67 7 -55 53 -82 132 -66 199 5 24 19 84 30 133 12 50 21
96 22 103 1 6 5 12 10 12 5 0 8 6 7 13 -3 18 12 67 21 67 4 0 26 -20 48 -44z
m4872 -95 c0 -6 -4 -13 -10 -16 -5 -3 -10 -13 -10 -22 0 -29 -45 -105 -67
-116 -13 -6 -23 -14 -23 -19 0 -5 -4 -6 -10 -3 -5 3 -10 1 -10 -6 0 -7 -3 -9
-7 -6 -3 4 -12 2 -19 -4 -7 -5 -65 -17 -131 -25 -65 -8 -139 -18 -164 -22 -76
-13 -83 -6 -53 53 13 28 30 57 37 65 19 24 75 46 152 60 39 6 77 14 85 18 22
8 192 49 213 51 9 0 17 -3 17 -8z m-4735 -112 c62 -57 70 -92 56 -244 -6 -66
-12 -157 -12 -203 -1 -80 -2 -83 -22 -76 -12 4 -23 11 -25 15 -2 5 -8 9 -14 9
-12 0 -58 47 -58 60 0 4 -4 10 -10 12 -5 2 -14 28 -20 58 -11 58 -2 165 26
310 8 41 15 81 16 88 2 20 16 14 63 -29z m4580 -119 c10 -17 -44 -119 -73
-137 -15 -10 -30 -21 -33 -25 -14 -20 -86 -30 -249 -37 -96 -4 -177 -6 -179
-4 -2 1 1 15 6 30 13 36 71 103 100 114 23 8 154 28 228 34 22 2 72 10 110 18
39 8 73 15 77 16 4 0 10 -4 13 -9z m-4387 -109 c9 -14 19 -28 22 -31 3 -3 7
-12 10 -20 5 -15 17 -432 13 -439 -1 -2 -17 2 -35 10 -38 16 -108 83 -108 104
0 8 -4 15 -8 15 -11 0 -14 27 -14 138 0 96 3 140 17 240 l7 51 40 -21 c21 -11
47 -32 56 -47z m4222 -111 c0 -25 -31 -82 -57 -105 -15 -14 -48 -36 -73 -48
-47 -23 -118 -27 -338 -18 -80 3 -82 4 -76 24 15 46 53 94 86 106 18 7 40 16
49 21 9 5 43 6 75 4 32 -3 113 1 179 9 155 19 155 19 155 7z m-4117 -23 c36
-19 92 -70 101 -93 13 -32 29 -166 27 -227 -1 -33 2 -64 7 -70 5 -7 13 -42 17
-79 l6 -67 -28 9 c-54 16 -78 33 -116 81 -32 40 -39 59 -47 121 -12 93 -13
338 -1 338 5 0 20 -6 34 -13z m244 -198 c45 -28 68 -80 83 -189 6 -47 15 -94
20 -105 5 -11 14 -49 19 -85 6 -36 14 -76 18 -89 6 -22 4 -23 -23 -17 -136 31
-186 119 -199 351 -3 55 -8 117 -10 137 l-5 37 30 -9 c17 -5 47 -19 67 -31z
m3691 16 c4 -3 -37 -68 -60 -96 -28 -34 -131 -70 -182 -64 -17 2 -69 9 -116
15 -47 6 -111 14 -142 17 -48 5 -58 9 -58 24 0 28 67 98 104 108 26 8 445 4
454 -4z m-3518 -155 c73 -37 100 -74 119 -160 7 -30 15 -62 18 -70 3 -8 7 -19
8 -25 0 -5 4 -17 7 -25 4 -8 16 -49 27 -90 11 -41 23 -83 26 -92 16 -40 -96
-10 -148 40 -44 42 -76 122 -93 234 -8 57 -18 114 -22 128 -9 32 -4 80 9 80 5
0 27 -9 49 -20z m3084 -9 c7 -6 26 -10 42 -10 68 0 194 -14 194 -23 0 -5 -24
-33 -54 -63 -64 -64 -110 -80 -200 -70 -34 4 -65 10 -71 14 -5 3 -19 7 -30 8
-11 1 -64 12 -117 25 -108 25 -115 33 -70 76 69 65 68 64 185 59 60 -3 114
-10 121 -16z m-2848 -130 c49 -22 77 -56 99 -119 9 -26 24 -60 33 -77 9 -16
14 -30 12 -30 -7 0 34 -112 61 -167 16 -32 29 -60 29 -63 0 -8 -56 -6 -64 2
-4 4 -13 8 -19 8 -7 0 -34 11 -61 25 -42 21 -53 34 -80 90 -18 36 -33 67 -33
70 -1 3 -4 12 -7 20 -3 8 -17 60 -30 115 -14 55 -28 110 -31 123 -6 19 -4 22
21 22 16 0 47 -9 70 -19z m2594 -11 c60 -20 135 -35 218 -45 28 -4 52 -11 52
-15 0 -20 -113 -110 -146 -116 -42 -8 -145 3 -182 18 -15 7 -74 26 -132 43
-68 21 -106 37 -108 47 -4 18 66 76 106 88 36 11 124 2 192 -20z m-2367 -102
c40 -12 49 -22 110 -118 13 -19 34 -62 47 -95 13 -33 32 -71 42 -84 10 -13 18
-29 18 -35 0 -6 11 -28 25 -48 14 -20 25 -39 25 -42 0 -12 -102 -6 -133 8 -50
20 -97 74 -130 146 -16 36 -33 74 -38 85 -16 34 -59 168 -59 182 0 16 40 17
93 1z m2075 -8 c45 -11 96 -27 112 -35 16 -8 69 -25 117 -36 49 -12 92 -23 96
-26 13 -8 -31 -50 -82 -80 -36 -21 -57 -26 -106 -25 -33 0 -73 6 -90 13 -16 7
-32 13 -35 14 -3 1 -16 6 -30 12 -14 6 -42 16 -62 24 -21 7 -38 17 -38 22 0 4
-4 5 -10 2 -5 -3 -10 -1 -10 4 0 6 -3 10 -7 9 -5 -1 -25 6 -47 15 -21 9 -43
17 -49 17 -20 0 38 53 78 71 50 23 62 23 163 -1z m-1838 -80 c33 -9 98 -67
113 -100 4 -8 18 -33 32 -55 13 -22 34 -58 46 -80 12 -22 41 -66 66 -98 55
-70 49 -81 -33 -73 -77 7 -84 8 -84 16 0 3 -13 14 -30 23 -16 10 -44 39 -62
65 -17 26 -34 49 -38 52 -3 3 -16 30 -29 60 -13 30 -29 65 -37 77 -8 12 -23
45 -34 73 l-20 50 38 0 c20 0 53 -5 72 -10z m1572 -6 c32 -9 58 -20 58 -24 0
-4 12 -11 28 -15 15 -3 59 -22 98 -40 39 -19 92 -39 118 -46 49 -12 53 -16 34
-41 -26 -33 -98 -61 -157 -61 -59 0 -169 34 -183 55 -4 7 -8 9 -8 3 0 -7 -3
-7 -8 0 -4 6 -31 21 -59 35 -29 14 -53 28 -53 31 0 3 -18 14 -40 24 -22 10
-39 23 -37 29 5 15 105 66 130 66 11 0 47 -7 79 -16z m-1272 -85 c17 -13 52
-51 76 -84 25 -33 59 -79 77 -103 18 -24 53 -66 79 -95 34 -36 44 -53 35 -59
-21 -13 -136 -9 -175 8 -42 17 -92 61 -92 81 0 7 -4 13 -8 13 -10 0 -92 127
-118 183 -10 20 -21 37 -25 37 -9 0 -18 37 -10 45 3 4 34 5 67 2 43 -3 71 -11
94 -28z m1087 -20 c54 -29 100 -55 103 -58 3 -4 34 -20 70 -35 36 -16 68 -33
71 -38 3 -5 9 -9 13 -9 39 5 28 -12 -32 -50 -38 -24 -57 -29 -109 -29 -39 0
-63 4 -63 11 0 6 -7 9 -15 5 -8 -3 -15 -1 -15 4 0 6 -6 10 -14 10 -14 0 -199
119 -204 132 -2 4 -19 15 -38 24 -34 16 -46 44 -19 44 8 0 15 4 15 9 0 12 58
29 102 30 27 1 65 -14 135 -50z m-831 -19 c10 -8 82 -80 159 -159 138 -140
140 -143 115 -153 -46 -18 -141 -13 -185 9 -80 42 -280 288 -256 317 13 16
142 5 167 -14z m523 1 c36 -19 134 -84 176 -118 6 -5 43 -28 83 -52 68 -40 72
-44 55 -56 -11 -8 -32 -17 -46 -20 -15 -4 -27 -11 -27 -16 0 -5 -24 -9 -53 -9
-63 0 -144 36 -213 95 -13 11 -40 34 -61 52 -84 70 -128 112 -122 117 10 10
114 33 139 31 14 -1 45 -12 69 -24z m-276 -6 c18 -9 86 -63 152 -120 66 -58
126 -105 133 -105 6 0 12 -4 12 -10 0 -5 7 -10 16 -10 28 0 10 -33 -26 -46
-47 -17 -119 -17 -166 0 -54 19 -159 113 -262 235 -43 51 -43 51 -20 60 36 15
127 12 161 -4z"/>
<path d="M5395 6349 c-27 -5 -59 -11 -70 -12 -11 -2 -27 -6 -35 -9 -8 -4 -62
-18 -120 -33 -58 -15 -107 -30 -110 -34 -3 -4 -31 -17 -62 -29 -56 -20 -166
-81 -218 -119 -42 -31 -270 -261 -270 -273 0 -6 -13 -31 -30 -54 -48 -71 -98
-186 -121 -281 -12 -49 -24 -97 -27 -105 -21 -62 -22 -458 0 -495 3 -6 9 -32
13 -59 12 -89 44 -171 113 -297 37 -68 75 -133 84 -144 9 -11 39 -47 66 -80
90 -109 241 -225 327 -250 53 -16 101 -19 109 -7 4 7 -86 54 -100 52 -4 -1
-10 3 -13 8 -3 5 -20 17 -38 26 -48 24 -207 180 -245 239 -18 29 -36 54 -40
55 -5 2 -8 7 -8 12 0 4 -18 39 -40 76 -22 38 -50 101 -62 139 -11 39 -24 75
-28 80 -4 6 -16 44 -26 85 -27 108 -27 416 0 548 10 50 23 92 28 92 5 0 8 6 7
13 -1 6 1 19 4 27 4 8 16 41 26 72 11 32 34 78 50 102 17 25 31 47 31 49 0 15
211 237 225 237 3 0 30 18 59 39 53 40 186 106 186 93 0 -4 4 -2 8 5 6 10 159
58 212 67 8 1 22 5 30 8 77 30 323 37 430 13 36 -9 72 -16 80 -17 8 0 20 -4
25 -8 6 -3 38 -15 73 -25 34 -10 62 -22 62 -27 0 -5 5 -6 10 -3 6 3 10 1 10
-5 0 -6 5 -8 10 -5 6 3 10 3 10 -2 0 -4 20 -16 45 -26 25 -11 45 -23 45 -28 0
-5 7 -9 15 -9 8 0 15 -4 15 -8 0 -5 17 -18 39 -30 21 -12 71 -52 111 -89 62
-58 92 -91 180 -200 6 -7 10 -16 10 -22 0 -5 3 -11 8 -13 17 -7 134 -263 125
-272 -3 -3 -1 -11 5 -18 5 -7 18 -51 27 -98 9 -47 20 -98 24 -115 4 -16 6 -95
5 -175 -1 -139 -19 -262 -46 -328 -6 -15 -12 -29 -13 -32 -6 -26 -60 -130 -67
-130 -5 0 -6 -4 -3 -10 3 -5 2 -10 -3 -10 -5 0 -14 -10 -19 -23 -21 -45 -113
-146 -196 -213 -93 -76 -142 -135 -163 -192 -17 -47 -17 -210 -1 -357 19 -172
10 -200 -86 -248 -91 -47 -171 -52 -520 -38 -391 16 -477 23 -477 39 0 4 -10
12 -22 17 -12 6 -29 22 -37 36 -13 24 -12 37 8 127 24 105 22 132 -11 168 -35
39 -108 7 -108 -48 0 -16 -4 -37 -9 -46 -5 -10 -16 -52 -25 -93 -13 -65 -14
-84 -3 -126 7 -27 23 -60 35 -73 12 -13 22 -27 22 -32 0 -4 37 -25 83 -47 90
-43 65 -40 462 -61 363 -19 594 -8 641 31 8 6 14 8 14 3 0 -5 4 -4 8 2 4 6 23
19 42 29 82 41 130 113 137 210 3 33 -2 119 -11 190 -20 162 -20 226 -1 271
15 36 70 93 141 149 49 38 97 87 131 133 15 21 32 42 39 47 6 6 24 35 39 65
15 30 33 62 40 70 7 8 23 44 36 80 12 36 26 70 30 75 4 6 16 48 26 95 25 119
25 436 -1 565 -9 49 -21 94 -26 100 -4 5 -15 36 -24 68 -16 56 -111 266 -125
277 -3 3 -18 23 -32 45 -67 102 -295 324 -376 366 -15 8 -30 16 -33 19 -3 3
-32 19 -65 35 -33 17 -62 33 -63 38 -2 4 -8 5 -13 1 -5 -3 -9 0 -9 7 0 7 -3 9
-7 6 -3 -4 -11 -3 -17 2 -11 10 -178 60 -224 67 -15 3 -40 7 -57 10 -59 10
-271 12 -320 3z"/>
<path d="M4885 5097 c-108 -51 -215 -217 -209 -323 3 -62 60 -164 107 -190 20
-11 48 -30 62 -42 33 -29 100 -62 124 -62 11 0 23 -4 26 -10 8 -12 92 -13 99
-1 3 4 34 11 68 14 35 3 83 15 108 26 25 11 62 21 84 21 35 0 38 2 31 23 -4
12 -11 67 -15 123 -4 55 -13 110 -19 122 -6 11 -11 31 -11 43 0 12 -16 48 -36
80 -35 58 -110 122 -204 173 -50 28 -161 29 -215 3z m180 -6 c17 -7 14 -10
-22 -20 -22 -6 -63 -29 -89 -51 -27 -22 -56 -40 -66 -40 -9 0 -19 -4 -22 -8
-7 -12 -83 -14 -90 -3 -9 13 50 78 88 98 58 30 156 42 201 24z m86 -51 c55
-29 117 -86 140 -131 27 -54 24 -60 -21 -38 -21 10 -46 19 -54 19 -8 0 -18 5
-21 10 -4 6 -13 9 -20 8 -7 -2 -26 7 -42 20 -71 58 -107 82 -119 82 -43 0 30
48 74 49 12 1 41 -8 63 -19z m-88 -81 c44 -34 87 -79 87 -92 0 -4 -10 -5 -23
-2 -46 12 -63 12 -110 -1 -27 -7 -55 -10 -63 -7 -11 4 -64 86 -64 99 0 2 5 4
11 4 6 0 23 9 37 21 34 26 70 20 125 -22z m-173 -38 c5 -14 14 -36 19 -47 9
-20 7 -21 -37 -16 -55 5 -56 6 -76 53 l-15 35 49 0 c44 0 51 -3 60 -25z m-110
-7 c13 -33 13 -116 -1 -150 -5 -16 -10 -54 -10 -86 0 -32 -4 -58 -9 -58 -11 0
-50 81 -50 104 0 9 -5 26 -11 37 -11 21 -6 43 27 137 18 47 40 54 54 16z m476
-61 c11 -7 23 -11 26 -8 3 3 17 -8 31 -24 33 -40 62 -171 38 -171 -5 0 -25 7
-44 15 -20 8 -48 15 -62 15 -25 0 -44 24 -31 37 4 4 26 2 49 -4 31 -9 44 -9
49 0 14 20 -15 117 -34 117 -7 0 -6 -5 0 -13 6 -7 14 -33 18 -57 7 -40 6 -43
-12 -36 -10 4 -34 10 -52 13 -24 4 -41 17 -62 49 -36 52 -38 61 -6 40 29 -19
41 -7 21 20 -8 10 -15 22 -15 26 0 11 61 -3 86 -19z m-133 -32 c20 -22 41 -58
47 -79 5 -22 17 -45 25 -52 31 -26 15 -32 -74 -28 -49 1 -87 0 -84 -4 2 -5 19
-8 38 -8 29 0 39 -7 64 -44 17 -24 36 -47 43 -49 7 -3 4 -6 -7 -6 -12 -1 -25
-5 -30 -10 -6 -5 -21 -12 -35 -15 -14 -2 -3 -3 24 -2 26 2 55 10 63 18 12 13
10 19 -22 51 -36 36 -40 62 -7 50 22 -9 34 -21 52 -56 8 -16 22 -33 32 -38 30
-16 21 -27 -32 -38 -88 -19 -136 -15 -158 14 -11 14 -24 25 -28 25 -14 1 -46
49 -39 60 3 6 15 5 31 -2 20 -10 27 -9 34 3 6 9 5 15 -3 18 -20 6 -86 75 -80
84 2 4 0 13 -5 20 -5 7 -12 33 -15 58 l-6 45 52 11 c81 16 83 15 120 -26z
m-204 9 c13 -7 21 -27 26 -67 4 -38 15 -69 31 -90 18 -24 21 -33 11 -33 -20 0
-100 29 -107 38 -3 5 -22 21 -43 37 -36 27 -38 30 -31 69 3 23 8 44 11 49 6
10 81 9 102 -3z m-92 -136 c15 -14 51 -37 80 -49 42 -19 60 -35 88 -79 20 -31
42 -56 50 -56 8 0 15 -4 15 -10 0 -14 -49 -12 -102 4 -48 14 -152 87 -162 112
-7 18 -8 104 -2 104 3 0 18 -12 33 -26z m489 -50 c19 -9 34 -21 34 -28 0 -6 3
-21 6 -32 5 -18 0 -23 -33 -31 -35 -8 -40 -6 -70 24 -37 37 -37 36 -21 63 15
24 39 25 84 4z"/>
<path d="M6057 5106 c-7 -7 -32 -25 -57 -40 -88 -54 -115 -78 -152 -134 -42
-64 -72 -178 -73 -277 0 -33 -4 -75 -9 -92 -8 -33 -7 -33 29 -33 20 0 57 -10
83 -21 26 -13 76 -24 115 -27 37 -2 67 -9 67 -13 0 -12 76 -11 98 0 9 5 38 17
64 26 26 9 58 27 70 41 13 13 43 34 66 45 48 24 76 61 93 124 6 22 16 50 21
61 6 14 6 28 0 40 -5 11 -17 43 -27 73 -16 53 -72 138 -111 173 -51 44 -109
65 -188 65 -47 0 -82 -4 -89 -11z m179 -21 c54 -16 134 -81 134 -108 0 -40
-157 2 -183 48 -4 8 -15 15 -22 15 -8 0 -15 4 -15 9 0 4 -21 14 -47 22 -43 12
-46 14 -23 20 43 12 104 10 156 -6z m-130 -41 c19 -9 34 -19 34 -23 0 -3 -20
-17 -45 -30 -25 -13 -59 -39 -75 -58 -17 -19 -35 -31 -40 -28 -6 3 -16 3 -22
-2 -18 -11 -112 -42 -116 -38 -9 8 30 74 61 104 42 40 125 90 150 90 11 1 34
-6 53 -15z m89 -56 c14 -6 25 -15 25 -20 0 -4 7 -8 15 -8 17 0 20 -16 6 -25
-5 -3 -12 -19 -16 -35 -9 -43 -32 -52 -93 -36 -28 8 -52 13 -54 11 -2 -1 -23
-5 -48 -9 l-45 -7 40 42 c48 50 113 99 131 99 7 0 25 -5 39 -12z m157 -77 c-9
-20 -18 -38 -19 -40 -2 -3 -26 -8 -54 -11 -40 -5 -49 -4 -44 8 3 7 5 19 5 26
0 31 33 52 80 52 l48 0 -16 -35z m54 22 c-3 -3 1 -11 8 -18 25 -25 40 -128 27
-183 -12 -50 -45 -112 -58 -112 -5 0 -7 20 -5 44 2 25 -3 74 -12 110 -16 63
-15 93 6 148 6 17 15 25 24 21 8 -3 13 -8 10 -10z m-442 -83 c-22 -35 -12 -50
16 -25 32 29 34 11 3 -34 -20 -29 -39 -44 -66 -51 -21 -6 -45 -14 -54 -17 -14
-6 -15 0 -9 42 7 53 -4 51 -22 -2 -14 -43 4 -71 36 -54 25 13 72 15 72 2 0
-14 -20 -25 -70 -37 -25 -6 -54 -15 -64 -19 -18 -8 -19 -5 -14 46 7 62 31 120
59 137 15 10 17 9 12 -6 -4 -11 0 -10 11 5 9 13 31 27 49 32 56 16 60 14 41
-19z m194 -7 c41 -6 49 -12 35 -27 -4 -3 -8 -14 -9 -24 -12 -84 -14 -87 -71
-146 -41 -42 -29 -52 35 -29 28 11 9 -22 -40 -69 l-53 -50 -70 5 c-104 8 -132
26 -85 54 11 7 27 27 36 45 18 35 31 48 52 48 20 0 4 -41 -27 -68 l-26 -23 24
-19 c13 -11 37 -20 55 -19 17 0 24 3 16 6 -8 2 -22 7 -30 10 -8 4 -18 5 -22 5
-5 -1 -8 5 -8 13 0 8 4 15 9 15 5 0 16 16 25 35 11 22 26 37 41 40 14 3 37 7
51 10 47 10 21 12 -68 6 -49 -3 -88 -2 -88 2 0 4 8 22 17 40 9 18 18 34 18 37
8 28 50 97 70 113 6 4 24 5 40 2 17 -3 49 -8 73 -12z m181 -50 c11 -42 11 -43
-21 -73 -36 -32 -96 -65 -141 -76 l-28 -6 23 38 c23 40 28 52 33 95 7 60 13
68 63 71 26 2 50 1 53 -2 3 -3 11 -24 18 -47z m21 -113 c0 -40 -23 -100 -38
-100 -4 0 -19 -11 -34 -25 -30 -28 -132 -65 -178 -65 l-31 0 33 33 c18 18 45
49 61 69 15 21 47 46 72 57 24 11 57 31 72 45 15 14 31 26 35 26 5 0 8 -18 8
-40z m-460 -35 c-10 -13 -9 -15 9 -15 20 0 21 -2 8 -26 -7 -14 -26 -33 -41
-43 -54 -36 -110 12 -73 62 12 17 56 35 91 36 15 1 16 -2 6 -14z"/>
<path d="M3272 4039 c-22 -35 31 -88 77 -76 12 3 42 -5 69 -19 36 -18 64 -24
117 -25 39 0 95 -5 125 -11 60 -12 350 -19 350 -8 0 12 141 11 156 -1 20 -16
25 -8 10 13 -9 13 -38 20 -107 28 -52 6 -105 12 -119 15 -14 2 -43 6 -65 10
-22 3 -53 8 -70 10 -16 2 -70 10 -120 19 -49 8 -130 20 -180 26 -49 6 -92 16
-96 21 -3 5 -35 11 -70 13 -56 4 -67 2 -77 -15z"/>
<path d="M7685 4052 c-11 -2 -25 -8 -31 -13 -6 -5 -60 -16 -121 -24 -60 -8
-140 -19 -179 -26 -38 -6 -80 -13 -94 -14 -14 -2 -72 -10 -130 -18 -58 -9
-131 -19 -162 -22 -31 -3 -62 -13 -69 -21 -15 -18 -4 -31 14 -16 14 12 157 13
157 2 0 -11 281 -10 300 0 10 6 74 14 142 19 95 6 131 13 158 29 21 12 47 19
65 17 54 -7 95 42 67 80 -7 11 -81 15 -117 7z"/>
<path d="M7636 3803 c4 -28 2 -43 -5 -44 -15 -2 -23 -4 -52 -16 -14 -6 -45
-17 -70 -24 -24 -7 -49 -17 -56 -22 -17 -12 -30 -2 -38 30 -3 14 -13 36 -21
47 -12 18 -14 18 -14 3 0 -10 6 -33 14 -52 18 -42 16 -44 -87 -77 l-77 -26
-12 22 c-6 11 -20 32 -30 46 l-20 25 8 -30 c4 -17 11 -31 16 -33 12 -5 10 -38
-4 -49 -7 -6 -38 -18 -68 -28 -30 -10 -60 -22 -67 -27 -7 -5 -17 -7 -23 -3 -5
3 -10 1 -10 -4 0 -29 -22 -4 -54 62 -28 55 -35 64 -30 37 4 -19 13 -49 22 -67
21 -44 12 -57 -52 -73 -31 -7 -56 -17 -56 -22 0 -5 -5 -6 -10 -3 -6 4 -16 2
-23 -3 -7 -5 -43 -19 -82 -31 -38 -13 -77 -25 -85 -28 -8 -4 -21 -5 -27 -4 -7
1 -13 -2 -13 -7 0 -4 -36 -19 -80 -31 -44 -13 -83 -27 -86 -32 -2 -4 -11 -6
-19 -2 -8 3 -15 1 -15 -4 0 -9 -152 -63 -178 -63 -7 0 -12 -5 -12 -12 0 -6 -3
-8 -7 -5 -3 4 -11 3 -17 -1 -6 -5 -38 -17 -71 -27 -33 -10 -71 -23 -85 -28
-14 -6 -27 -11 -30 -12 -3 -1 -17 -7 -32 -13 -16 -6 -63 -21 -105 -34 -43 -12
-80 -25 -83 -28 -3 -4 -34 -14 -70 -24 -36 -10 -83 -26 -105 -36 -69 -30 -75
-30 -118 -11 -23 10 -78 29 -122 41 -44 12 -82 25 -85 29 -3 4 -40 17 -83 29
-42 13 -89 28 -105 34 -15 6 -29 12 -32 13 -3 1 -16 6 -30 12 -14 5 -52 18
-85 28 -33 10 -66 23 -72 28 -7 5 -13 6 -13 2 0 -4 -6 -3 -12 2 -7 6 -44 20
-83 33 -38 12 -83 29 -100 36 -24 11 -102 38 -220 78 -5 1 -17 6 -25 9 -8 3
-49 16 -90 29 -41 12 -78 27 -81 32 -4 5 -12 5 -18 2 -6 -4 -11 -3 -11 2 0 5
-24 15 -54 22 -73 17 -83 24 -67 44 8 9 10 16 6 16 -4 0 -3 6 2 13 13 16 37
106 31 113 -3 2 -11 -16 -18 -41 -7 -25 -16 -45 -21 -45 -4 0 -10 -13 -14 -30
-9 -41 -18 -44 -67 -21 -24 10 -61 24 -83 31 -63 19 -77 33 -65 64 18 47 10
63 -9 19 l-19 -41 -79 25 c-102 34 -110 41 -89 84 9 17 16 34 16 37 0 10 -36
-33 -43 -50 -9 -24 -17 -23 -119 11 -48 15 -91 25 -94 22 -4 -3 -4 12 -1 34
l6 40 -18 -23 c-16 -22 -21 -23 -77 -16 -58 9 -93 8 -102 -1 -9 -9 23 -38 76
-67 40 -23 51 -35 46 -47 -7 -17 -62 -167 -70 -191 -4 -11 -13 -6 -37 20 -17
19 -40 40 -52 46 -11 6 -30 17 -42 24 -19 12 -24 12 -41 -4 -31 -27 -9 -71 51
-100 12 -6 29 -26 37 -45 10 -23 29 -41 65 -58 27 -14 52 -29 55 -33 9 -12
171 -119 191 -125 10 -4 19 -10 19 -15 0 -10 102 -60 122 -60 9 0 18 -7 22
-15 3 -8 12 -15 20 -15 31 0 136 -53 141 -71 4 -11 11 -19 16 -19 15 0 10 29
-8 45 -79 68 -102 85 -110 85 -6 0 -16 6 -22 14 -9 11 -6 27 11 72 12 33 23
64 24 69 4 19 54 160 67 187 6 16 15 28 19 28 8 0 78 -27 149 -58 l47 -20 -23
-49 c-13 -26 -29 -71 -36 -98 -6 -28 -15 -54 -19 -60 -6 -8 -26 -85 -45 -168
-2 -10 1 -17 7 -15 12 4 30 49 69 178 16 52 33 104 38 115 5 11 14 35 21 53
14 36 34 40 83 18 18 -8 73 -26 122 -40 127 -35 309 -99 317 -111 4 -5 8 -7 8
-4 0 4 51 -11 113 -32 61 -22 157 -54 212 -70 55 -17 105 -34 110 -39 6 -4 24
-10 40 -14 59 -13 170 -49 182 -58 7 -5 17 -7 23 -3 5 3 10 2 10 -3 0 -5 26
-15 58 -22 31 -7 61 -15 66 -17 9 -6 -61 -42 -82 -43 -7 0 -47 -13 -90 -29
-42 -17 -84 -31 -92 -33 -8 -2 -17 -5 -20 -8 -3 -3 -36 -14 -75 -24 -38 -10
-72 -21 -75 -25 -3 -4 -43 -20 -90 -35 -47 -15 -98 -33 -115 -41 -16 -7 -75
-26 -130 -41 -55 -15 -102 -30 -105 -34 -3 -3 -25 -12 -49 -20 -24 -8 -50 -20
-57 -28 -8 -7 -18 -11 -24 -7 -11 7 -60 -23 -60 -37 0 -15 63 2 80 22 9 10 47
25 93 35 44 9 93 25 110 35 18 11 57 23 87 29 30 5 73 15 95 21 22 6 50 12 62
14 12 2 33 10 47 19 13 9 51 21 84 26 33 5 80 19 105 30 24 11 89 30 143 41
55 12 106 24 114 27 8 3 19 5 24 4 5 -1 12 2 15 6 3 5 34 17 69 28 65 19 111
15 187 -16 17 -7 34 -11 39 -10 4 1 13 -2 20 -7 6 -5 58 -20 116 -32 58 -12
128 -32 155 -45 28 -12 74 -25 103 -28 29 -3 69 -15 90 -26 34 -18 123 -42
199 -55 18 -3 51 -14 74 -25 46 -23 182 -55 201 -48 7 2 -13 12 -44 22 -32 10
-58 23 -58 27 0 5 -5 6 -10 3 -6 -4 -16 -3 -23 3 -7 5 -41 17 -77 27 -36 9
-76 22 -90 28 -14 6 -27 11 -30 12 -3 1 -18 7 -33 13 -16 7 -32 12 -38 12 -15
0 -134 42 -139 50 -3 3 -34 14 -70 24 -71 20 -297 99 -345 121 -34 16 -33 16
65 40 36 9 70 20 75 25 6 4 44 18 85 30 41 12 82 24 90 27 8 4 19 5 24 4 5 -1
12 2 15 7 3 4 53 22 111 40 147 43 294 95 301 106 4 5 14 6 23 3 9 -4 16 -3
16 2 0 5 20 14 44 20 25 6 57 16 73 23 15 6 30 12 33 13 3 1 17 7 32 13 15 6
71 23 125 37 54 15 112 33 130 41 57 26 70 20 88 -41 8 -30 15 -58 14 -61 0
-4 3 -10 8 -13 5 -3 17 -33 27 -66 10 -33 23 -71 29 -85 6 -14 9 -29 8 -34 -1
-5 2 -12 7 -15 5 -3 14 -19 21 -36 10 -26 11 -22 6 35 -3 36 -10 67 -15 68 -6
2 -7 8 -4 13 3 6 1 15 -4 22 -5 7 -19 45 -31 86 -12 40 -31 90 -42 110 -22 41
-23 51 -8 51 6 0 47 16 90 35 86 37 109 42 109 23 0 -7 6 -25 14 -40 8 -14 24
-61 37 -105 12 -43 26 -83 30 -88 4 -6 14 -30 23 -55 15 -42 14 -46 -2 -58 -9
-7 -25 -19 -35 -27 -9 -8 -20 -15 -23 -15 -6 0 -26 -15 -60 -47 -24 -22 -32
-53 -14 -53 6 0 10 7 10 16 0 15 114 74 144 74 8 0 19 6 23 13 4 7 29 21 56
31 26 10 54 24 62 33 8 8 15 11 15 6 0 -4 4 -3 8 3 4 6 27 21 51 34 24 12 56
33 70 46 14 13 30 24 36 24 6 0 22 11 36 24 14 13 44 33 66 44 41 21 60 40 78
75 6 12 20 27 33 33 58 29 75 63 48 99 -12 16 -17 17 -43 6 -17 -7 -50 -30
-74 -51 -24 -22 -47 -40 -51 -40 -8 0 -11 16 -5 23 1 2 -3 10 -9 18 -7 8 -15
30 -19 49 -4 19 -16 52 -26 72 -11 21 -19 39 -19 41 0 3 25 19 55 38 30 18 57
39 60 48 7 17 -13 32 -35 26 -8 -2 -39 -7 -68 -10 -52 -7 -52 -7 -67 27 l-16
33 7 -42z m-4138 -154 c39 -12 72 -25 72 -30 0 -4 8 -5 19 -2 20 5 40 -15 24
-26 -5 -3 -22 -42 -38 -86 -16 -44 -32 -84 -36 -90 -4 -5 -10 -27 -14 -48 -4
-20 -11 -40 -17 -43 -5 -3 -32 14 -61 39 -29 24 -65 52 -82 62 -16 11 -31 20
-33 21 -3 2 57 203 65 217 6 11 22 9 101 -14z m4181 8 c6 -8 8 -17 4 -21 -4
-4 -3 -10 3 -14 6 -4 21 -38 34 -77 13 -38 25 -75 27 -81 2 -6 -24 -31 -58
-55 -34 -24 -71 -54 -82 -66 -25 -28 -47 -30 -47 -5 0 10 -3 22 -7 26 -5 4 -8
11 -9 14 -1 24 -40 135 -60 175 -25 51 -24 67 4 67 9 0 46 11 82 25 76 28 93
30 109 12z m-3954 -82 c95 -36 97 -40 70 -106 -29 -70 -37 -94 -33 -95 2 0 -2
-7 -8 -15 -7 -8 -20 -50 -29 -94 -10 -44 -19 -82 -21 -84 -1 -1 -41 25 -89 59
-84 62 -85 63 -70 86 8 13 13 24 9 24 -4 0 -2 6 4 13 5 6 17 39 27 72 9 33 22
66 27 73 6 6 7 12 3 12 -4 0 -3 6 2 13 6 6 13 24 17 40 3 15 10 27 15 27 5 0
39 -11 76 -25z m3725 -17 c8 -24 16 -47 19 -53 3 -5 6 -12 7 -15 0 -3 4 -12 7
-20 4 -8 18 -51 32 -95 l25 -80 -22 -15 c-12 -8 -50 -36 -85 -62 -49 -37 -63
-43 -63 -30 0 23 -28 131 -40 157 -5 11 -23 57 -39 102 -26 70 -28 83 -15 94
15 12 131 58 150 58 6 1 17 -18 24 -41z"/>
<path d="M6670 2620 c-20 -12 -4 -26 40 -35 l35 -7 -24 26 c-27 29 -30 30 -51
16z"/>
<path d="M2128 6798 c-14 -18 -46 -76 -72 -128 -26 -52 -53 -102 -61 -110 -8
-9 -15 -22 -15 -28 0 -7 -5 -12 -12 -12 -6 0 -9 -3 -5 -6 3 -3 -14 -26 -39
-50 l-45 -43 30 -42 c17 -23 33 -58 37 -78 3 -20 13 -46 21 -59 25 -41 133
-253 133 -263 0 -10 -22 -8 -31 4 -7 9 -114 47 -134 47 -8 0 -15 5 -15 10 0 6
-3 9 -7 8 -18 -5 -101 47 -135 84 -42 45 -61 45 -80 1 -7 -15 -15 -30 -19 -33
-3 -3 -18 -27 -33 -53 -30 -55 -34 -60 -98 -131 -45 -50 -53 -71 -23 -60 7 3
22 1 32 -5 34 -19 130 -116 147 -149 9 -18 25 -38 36 -45 11 -6 20 -16 20 -21
0 -13 61 -86 136 -161 35 -36 64 -69 64 -73 0 -4 12 -20 26 -35 22 -24 30 -27
62 -21 20 4 44 13 53 20 11 10 18 11 27 2 8 -8 19 -8 41 2 36 15 41 44 12 75
-66 69 -91 100 -97 119 -7 21 -163 200 -215 247 -16 14 -29 31 -29 37 0 6 -6
15 -14 19 -16 10 -40 53 -28 53 4 0 13 -5 18 -10 6 -6 44 -19 85 -31 41 -11
88 -28 104 -38 17 -9 60 -25 98 -35 37 -10 70 -22 73 -27 3 -5 16 -9 28 -9 13
0 34 -8 47 -19 13 -10 35 -22 49 -26 43 -12 80 -30 80 -37 0 -5 10 -8 23 -8
29 0 51 34 38 58 -6 9 -19 37 -30 62 -28 62 -92 179 -119 217 -12 17 -22 34
-22 37 0 4 -8 15 -17 26 -10 10 -29 53 -41 94 -13 42 -27 76 -30 76 -4 0 -18
35 -32 78 -13 42 -28 83 -33 90 -6 8 -5 12 5 12 8 0 50 -37 92 -82 43 -46 107
-114 142 -151 35 -37 64 -70 64 -73 0 -7 94 -124 126 -157 15 -15 32 -26 38
-24 6 2 11 27 12 56 1 29 5 56 11 60 14 9 9 56 -10 83 -9 12 -30 39 -47 58
-101 113 -171 189 -212 232 -27 27 -48 54 -48 59 0 5 -20 31 -44 57 -73 79
-106 183 -81 260 10 32 -9 27 -37 -10z"/>
<path d="M2544 6801 c-45 -11 -53 -18 -60 -57 -6 -32 -1 -44 50 -118 31 -46
56 -91 56 -100 0 -9 27 -48 60 -87 41 -47 63 -84 71 -114 13 -50 31 -61 85
-51 64 13 85 98 36 144 -34 32 -52 63 -52 89 0 10 -13 34 -30 53 -16 19 -29
41 -30 47 0 17 -42 105 -57 121 -7 7 -16 24 -19 38 -10 40 -43 51 -110 35z"/>
<path d="M8596 6718 c-12 -25 -32 -40 -81 -63 -36 -16 -65 -33 -65 -37 0 -5
-7 -8 -15 -8 -8 0 -38 -15 -67 -34 -69 -43 -188 -107 -188 -100 0 2 -11 -6
-25 -19 -30 -27 -25 -54 10 -63 13 -3 31 -14 41 -25 24 -26 32 -25 119 21 42
22 81 40 88 40 15 0 81 -68 90 -93 7 -19 -19 -82 -45 -109 -9 -9 -22 -36 -28
-60 -6 -24 -15 -51 -20 -60 -13 -23 -13 -95 0 -103 6 -3 10 -19 10 -35 0 -53
44 -132 99 -178 63 -53 98 -72 134 -72 34 0 34 12 1 36 -62 45 -76 58 -85 78
-6 11 -19 37 -30 56 -28 51 -24 98 15 177 39 79 59 153 50 188 -5 22 -3 25 19
25 14 0 32 -6 39 -13 23 -23 111 -40 152 -29 42 12 57 26 85 76 26 45 29 134
6 142 -8 4 -15 11 -15 18 0 6 -33 47 -73 92 -169 190 -195 207 -221 152z m118
-170 c1 -2 19 -24 39 -50 36 -45 37 -49 27 -87 -9 -35 -16 -42 -50 -51 -56
-15 -107 -4 -128 29 -9 14 -32 41 -50 60 -37 40 -36 43 41 83 36 19 62 26 86
23 18 -2 34 -5 35 -7z"/>
<path d="M9090 6177 c-14 -5 -39 -16 -57 -23 -17 -8 -35 -14 -40 -14 -6 0 -20
-9 -33 -20 -13 -11 -36 -20 -52 -20 -25 0 -111 -40 -128 -60 -11 -12 -60 -29
-104 -35 -29 -5 -46 -12 -46 -21 0 -8 -4 -14 -10 -14 -17 0 -11 -51 10 -81 26
-35 82 -49 108 -26 9 8 27 18 40 21 12 4 22 11 22 15 0 4 17 8 37 9 21 2 56
11 78 21 43 19 183 66 226 75 31 7 41 39 32 104 -7 54 -44 85 -83 69z"/>
<path d="M9297 5913 c-2 -5 -7 -20 -11 -35 -3 -15 -15 -30 -26 -33 -11 -3 -20
-10 -20 -15 0 -4 -16 -11 -36 -15 -20 -3 -44 -10 -53 -15 -32 -17 -107 -34
-133 -31 -16 1 -28 -2 -28 -6 0 -5 -11 -10 -26 -11 -14 -1 -33 -6 -44 -12 -24
-13 -127 -17 -162 -7 -37 10 -37 -8 1 -53 15 -19 40 -57 54 -85 27 -54 123
-176 163 -207 13 -11 32 -34 41 -51 15 -31 70 -86 86 -87 24 -1 -16 98 -67
165 -20 25 -36 51 -36 56 0 5 -9 19 -20 31 -16 17 -29 78 -17 78 1 0 24 7 50
15 49 15 49 15 75 -14 67 -70 158 -170 170 -185 7 -9 18 -16 24 -16 16 0 0 99
-19 118 -9 9 -22 30 -29 47 -7 16 -24 42 -38 57 -43 46 -31 58 58 58 62 0 107
-20 132 -58 10 -15 24 -33 31 -40 7 -7 13 -19 13 -27 0 -14 97 -135 108 -135
4 0 13 4 20 9 10 6 3 26 -29 87 -24 43 -46 81 -49 84 -4 3 -15 25 -26 50 -10
25 -33 72 -50 105 -17 33 -37 78 -44 100 -21 65 -50 101 -63 78z"/>
<path d="M8271 2382 c-19 -6 -60 -54 -61 -69 0 -7 -6 -16 -13 -20 -7 -4 -22
-22 -32 -39 -20 -31 -72 -93 -187 -218 -67 -72 -75 -102 -27 -92 17 3 39 2 49
-4 26 -14 154 -148 162 -170 4 -11 16 -28 28 -40 11 -11 25 -32 30 -45 5 -14
16 -25 24 -25 7 0 16 -8 20 -17 3 -10 15 -34 26 -53 11 -19 20 -47 20 -62 0
-43 24 -35 50 17 14 26 73 112 100 142 5 7 10 19 10 27 0 8 4 16 8 18 9 3 62
128 62 144 0 4 11 21 23 38 29 37 50 97 42 118 -9 22 -62 -36 -130 -142 -66
-104 -71 -110 -93 -110 -24 0 -82 57 -82 81 0 23 18 59 36 74 7 6 22 42 33 80
12 39 30 81 41 94 49 58 -2 56 -61 -2 -57 -56 -70 -73 -94 -121 -11 -22 -25
-41 -32 -43 -20 -7 -65 83 -65 128 1 55 10 78 48 126 19 23 34 46 34 52 0 6 5
11 11 11 5 0 7 5 4 10 -3 6 -2 10 2 10 10 0 43 69 43 88 0 15 -12 20 -29 14z"/>
<path d="M2886 2322 c-8 -14 3 -65 17 -73 6 -4 6 -15 2 -25 -5 -11 -9 -21 -10
-24 -10 -30 -24 -44 -59 -62 -22 -11 -45 -27 -49 -34 -4 -8 -14 -14 -21 -14
-8 0 -40 -18 -72 -39 -33 -22 -71 -42 -86 -46 -15 -4 -34 -15 -44 -26 -9 -10
-24 -19 -31 -19 -8 0 -26 -9 -40 -20 -14 -11 -32 -20 -39 -20 -8 0 -14 -4 -14
-8 0 -5 -30 -19 -66 -31 -52 -19 -76 -22 -120 -17 -54 6 -55 6 -49 -16 3 -13
23 -36 43 -53 20 -16 67 -61 105 -100 155 -159 189 -192 232 -225 25 -19 60
-47 78 -61 38 -31 147 -69 196 -69 20 0 50 9 67 19 57 35 90 142 60 201 l-16
32 37 -7 c21 -4 50 -13 65 -21 15 -8 40 -14 57 -14 16 0 32 -4 35 -9 3 -5 26
-9 52 -9 39 -1 51 4 86 36 50 45 70 89 61 134 -11 58 -84 214 -110 235 -8 6
-13 14 -11 17 6 12 -144 166 -177 182 -19 9 -33 19 -32 23 1 4 -19 31 -45 61
-26 30 -58 68 -71 84 -15 19 -26 25 -31 18z m206 -355 c22 -25 47 -102 48
-149 1 -70 -85 -107 -162 -68 -59 30 -142 104 -136 121 3 8 36 30 74 49 38 19
73 40 79 47 9 11 34 19 63 22 8 0 23 -10 34 -22z m-317 -178 c19 -17 35 -37
35 -45 0 -8 5 -14 11 -14 5 0 8 -4 5 -9 -3 -5 1 -11 9 -15 11 -4 15 -20 15
-53 -1 -45 -4 -50 -48 -85 -63 -51 -103 -51 -159 -3 -23 19 -45 35 -50 35 -23
2 -103 93 -91 105 7 8 221 115 229 115 5 0 24 -14 44 -31z"/>
<path d="M7865 1861 c-3 -5 -22 -15 -43 -22 -96 -31 -153 -98 -185 -220 -15
-59 -13 -98 8 -139 19 -36 33 -46 82 -59 23 -6 45 -16 48 -21 10 -16 48 -12
91 9 21 10 59 24 84 31 25 6 53 16 63 21 22 12 67 -16 67 -41 0 -10 -19 -39
-43 -63 -54 -57 -126 -82 -193 -67 -35 8 -51 7 -72 -4 -15 -9 -21 -15 -14 -16
7 0 11 -3 8 -8 -7 -12 16 -37 49 -54 24 -12 44 -14 95 -7 110 14 142 29 198
91 49 55 90 118 76 118 -4 0 -2 6 4 13 5 6 11 21 12 32 6 51 -2 75 -40 117
-31 36 -46 45 -69 44 -16 -1 -33 -5 -37 -9 -4 -4 -24 -7 -44 -7 -20 0 -63 -9
-95 -20 -74 -26 -122 -19 -137 19 -6 14 -14 34 -19 43 -14 26 -12 31 27 76 45
54 126 82 156 55 10 -9 18 -27 18 -41 0 -24 -2 -25 -50 -19 -43 5 -50 4 -50
-12 0 -31 25 -54 59 -53 84 2 120 30 123 95 1 43 -35 113 -64 121 -35 9 -106
7 -113 -3z"/>
<path d="M7435 1497 c-38 -12 -72 -25 -73 -29 -2 -5 -8 -6 -12 -3 -12 7 -90
-71 -90 -89 0 -8 -6 -16 -14 -19 -18 -7 -46 -96 -45 -144 1 -56 28 -94 90
-126 58 -30 64 -30 211 -6 64 11 81 11 103 -1 36 -19 31 -42 -18 -87 -36 -33
-55 -42 -106 -51 -53 -10 -69 -9 -100 5 -63 28 -102 13 -82 -34 18 -45 61 -63
149 -63 104 0 133 10 203 71 82 71 111 132 98 208 -6 37 -17 63 -33 80 -22 22
-32 24 -108 23 -46 0 -105 -5 -132 -11 -41 -10 -54 -9 -85 6 -34 17 -36 21
-39 69 -3 48 -1 54 34 87 30 28 48 36 91 41 62 7 83 -5 83 -49 0 -25 -3 -27
-32 -22 -18 3 -43 8 -55 12 -19 6 -23 4 -23 -14 0 -39 34 -61 94 -61 49 0 57
3 81 32 24 28 26 37 20 77 -16 108 -80 138 -210 98z"/>
<path d="M3380 1443 c-54 -9 -137 -38 -169 -60 -19 -13 -51 -26 -72 -29 -21
-4 -46 -14 -56 -23 -10 -9 -27 -17 -38 -19 -11 -2 -57 -15 -103 -30 -66 -21
-84 -31 -88 -49 -8 -29 13 -90 32 -97 23 -9 149 32 170 55 28 31 63 22 154
-39 69 -47 86 -63 88 -86 4 -29 -24 -105 -42 -117 -5 -4 -6 -19 -4 -33 3 -15
1 -29 -3 -32 -15 -9 -10 -56 7 -75 14 -15 54 -16 54 0 0 3 20 28 45 55 24 27
42 53 39 57 -3 5 -1 9 5 9 10 0 30 31 53 83 7 15 16 27 20 27 4 0 8 6 8 14 0
7 11 21 25 30 14 9 25 23 25 30 0 8 6 16 14 19 7 3 23 25 36 49 12 23 25 45
29 48 19 13 41 57 41 80 0 17 -10 31 -32 45 -18 11 -39 25 -48 30 -99 63 -120
70 -190 58z m72 -124 c-18 -18 -35 -42 -38 -55 -3 -13 -10 -24 -16 -24 -5 0
-6 -4 -3 -10 3 -5 2 -10 -2 -10 -5 0 -17 -13 -26 -30 -20 -33 -43 -38 -72 -15
-11 8 -39 29 -62 45 -24 17 -43 35 -43 40 0 14 56 36 113 44 26 4 47 11 47 16
0 12 55 28 99 29 l35 1 -32 -31z"/>
<path d="M7100 1295 c-7 -9 -21 -13 -31 -10 -13 4 -27 -3 -44 -21 -22 -24 -25
-33 -19 -78 3 -28 13 -76 21 -106 8 -30 14 -65 14 -78 -1 -13 6 -36 14 -52 8
-16 14 -44 13 -62 -1 -18 5 -54 12 -80 13 -45 13 -48 -16 -95 -38 -61 -68 -73
-120 -47 -31 15 -38 24 -36 42 2 12 -2 22 -7 22 -6 0 -10 3 -9 8 1 4 -6 31
-15 60 -9 29 -19 99 -22 155 -9 155 -7 150 -63 142 -85 -12 -97 -43 -62 -157
11 -35 20 -87 21 -116 1 -29 5 -52 9 -52 9 0 30 -71 30 -104 0 -38 91 -134
125 -132 14 0 25 4 25 9 0 4 15 7 34 7 18 0 39 7 46 15 7 8 21 15 31 15 60 0
165 92 180 157 12 52 9 158 -7 228 -9 39 -17 88 -20 110 -2 22 -8 49 -13 60
-5 11 -14 47 -21 80 -19 93 -40 117 -70 80z"/>
<path d="M3753 1233 c-7 -3 -13 -16 -13 -29 0 -37 -16 -62 -87 -134 -35 -36
-70 -80 -79 -98 -8 -18 -26 -39 -40 -48 -13 -9 -24 -22 -24 -30 0 -7 -22 -35
-50 -62 -59 -59 -66 -92 -19 -92 17 0 39 -5 51 -11 32 -17 60 -2 108 57 25 30
52 59 61 64 21 12 78 -6 115 -35 l27 -22 -13 -96 c-12 -86 -12 -103 3 -156 9
-33 28 -76 42 -97 14 -20 25 -40 25 -44 0 -4 24 -26 53 -48 79 -61 204 -90
259 -61 20 11 19 12 -18 25 -21 8 -45 12 -51 9 -7 -2 -13 -1 -13 3 0 5 -15 14
-34 20 -42 15 -115 93 -117 124 -1 13 -2 77 -3 143 -1 98 -4 126 -19 148 -12
19 -14 27 -5 27 124 2 168 9 202 35 52 40 66 92 45 169 -15 54 -53 84 -192
154 -134 67 -195 91 -214 85z m180 -170 c26 -9 47 -21 47 -26 0 -4 4 -6 9 -3
10 7 31 -46 31 -80 0 -23 -45 -68 -80 -79 -22 -7 -90 11 -90 24 0 4 -17 13
-39 19 -69 21 -70 34 -4 102 33 33 63 60 68 60 6 0 31 -8 58 -17z"/>
<path d="M4253 1025 c-3 -10 -1 -20 4 -24 28 -18 22 -60 -17 -137 -22 -43 -40
-86 -40 -94 0 -9 -13 -29 -30 -45 -16 -16 -30 -34 -30 -41 0 -6 -6 -14 -14
-17 -7 -3 -23 -25 -34 -49 -20 -40 -57 -75 -74 -70 -5 1 -8 -2 -8 -7 0 -5 -13
-12 -30 -16 -48 -10 -43 -21 15 -35 30 -7 55 -17 55 -21 0 -4 14 -5 31 -2 16
2 36 0 42 -5 7 -5 30 -13 52 -17 22 -4 45 -10 50 -15 6 -4 28 -11 50 -15 21
-3 52 -13 67 -21 16 -8 57 -14 104 -14 68 0 82 3 128 31 28 18 54 37 58 43 17
25 7 74 -22 111 -33 42 -34 59 -4 63 81 11 125 27 155 58 27 28 31 37 25 67
-7 39 -58 115 -84 124 -9 4 -28 15 -42 25 -14 10 -63 24 -115 31 -82 13 -157
40 -258 93 -24 14 -28 14 -34 -1z m278 -170 c52 -18 69 -38 69 -80 0 -60 -62
-88 -160 -72 -74 12 -89 27 -65 64 10 15 22 32 27 38 4 5 17 22 29 38 23 31
39 33 100 12z m-140 -227 c22 -6 39 -15 39 -20 0 -5 4 -7 9 -4 16 10 18 -30 4
-67 -17 -41 -25 -45 -108 -48 -125 -5 -144 32 -62 119 34 35 57 39 118 20z"/>
<path d="M6435 1005 c-5 -2 -22 -6 -36 -9 -15 -3 -54 -26 -87 -50 -45 -33 -66
-57 -82 -93 -11 -26 -29 -57 -38 -68 -45 -51 -61 -203 -30 -276 32 -74 106
-127 203 -144 89 -15 120 -9 190 37 26 18 56 37 64 42 32 17 84 98 98 149 18
70 16 173 -4 233 -9 27 -19 51 -23 54 -3 3 -9 13 -13 22 -3 10 -34 38 -68 63
-55 40 -67 45 -113 44 -28 0 -55 -2 -61 -4z m25 -105 c14 -11 32 -20 41 -20
24 0 69 -95 76 -160 3 -31 0 -87 -6 -123 -10 -59 -17 -72 -54 -107 -60 -57
-87 -54 -154 15 l-53 55 0 109 c0 85 3 113 15 125 9 8 22 34 31 58 23 68 58
84 104 48z"/>
<path d="M4815 870 c-4 -7 3 -25 15 -42 16 -21 20 -37 16 -56 -4 -15 -7 -33
-8 -39 -1 -7 -6 -13 -11 -13 -5 0 -7 -6 -4 -14 6 -16 -23 -101 -53 -157 -11
-20 -17 -39 -13 -43 3 -3 1 -6 -5 -6 -6 0 -13 -15 -17 -32 -11 -52 -47 -127
-64 -133 -24 -7 -45 -44 -29 -49 32 -11 252 -13 338 -4 52 5 126 10 163 11 56
2 71 6 83 22 14 18 13 20 -13 28 -15 4 -84 10 -153 13 -133 6 -170 17 -167 54
1 11 5 20 10 20 5 0 7 6 4 13 -3 7 3 23 12 35 13 18 29 23 86 27 173 11 230
20 230 35 0 24 -92 51 -182 53 -96 2 -113 12 -83 49 11 15 20 30 20 35 0 20
49 54 84 60 20 3 36 10 36 15 0 6 10 7 23 3 12 -3 64 -8 116 -11 94 -4 121 3
121 32 0 15 -28 21 -150 34 -47 4 -105 13 -130 19 -25 5 -90 17 -145 27 -55 9
-105 19 -111 21 -7 2 -15 -1 -19 -7z"/>
<path d="M6020 865 c-19 -7 -49 -14 -67 -14 -23 -1 -37 -9 -53 -31 -23 -32
-71 -156 -63 -164 2 -2 -4 -7 -14 -10 -16 -6 -93 -149 -93 -174 0 -23 -19 -20
-35 5 -11 16 -25 76 -36 152 -20 139 -27 151 -103 172 -45 12 -85 7 -121 -17
-21 -14 -25 -24 -25 -65 0 -27 -9 -68 -19 -92 -22 -47 -46 -145 -38 -153 3 -3
-3 -28 -14 -56 -10 -27 -24 -84 -31 -125 -10 -61 -10 -76 1 -83 15 -9 66 3 87
21 23 19 54 94 54 131 0 18 7 46 15 62 9 16 15 37 14 45 -4 29 13 101 22 95 5
-3 9 -15 9 -26 0 -12 7 -29 16 -39 9 -10 20 -32 24 -51 30 -117 45 -156 67
-180 14 -15 30 -25 35 -22 4 3 8 0 8 -5 0 -15 55 -14 68 2 6 6 14 30 18 52 4
22 13 46 21 53 7 7 13 23 13 35 0 12 10 38 22 57 12 19 36 64 54 100 18 36 45
79 60 95 l26 30 -7 -50 c-3 -27 -8 -68 -9 -90 -7 -95 -18 -171 -28 -191 -17
-35 -6 -57 32 -66 53 -12 100 -1 100 22 0 11 5 20 10 20 6 0 10 6 9 13 -2 6 3
30 9 52 7 22 12 57 12 78 0 63 32 247 45 260 6 7 15 40 19 74 6 56 5 63 -16
77 -27 19 -51 19 -98 1z"/>
</g>
</svg>
